<?xml version="1.0" encoding="utf-8" standalone="no"?>
<!DOCTYPE svg PUBLIC "-//W3C//DTD SVG 1.1//EN"
  "http://www.w3.org/Graphics/SVG/1.1/DTD/svg11.dtd">
<!-- Created with matplotlib (http://matplotlib.org/) -->
<svg height="432pt" version="1.1" viewBox="0 0 576 432" width="576pt" xmlns="http://www.w3.org/2000/svg" xmlns:xlink="http://www.w3.org/1999/xlink">
 <defs>
  <style type="text/css">
*{stroke-linecap:butt;stroke-linejoin:round;}
  </style>
 </defs>
 <g id="figure_1">
  <g id="patch_1">
   <path d="
M0 432
L576 432
L576 0
L0 0
z
" style="fill:#ffffff;"/>
  </g>
  <g id="axes_1">
   <g id="patch_2">
    <path d="
M72 388.8
L518.4 388.8
L518.4 43.2
L72 43.2
z
" style="fill:#ffffff;"/>
   </g>
   <g id="patch_3">
    <path clip-path="url(#p7ff5b81e1d)" d="
M84.4 319.68
L109.2 319.68
L109.2 319.279
L84.4 319.279
z
" style="fill:#ffa500;stroke:#000000;"/>
   </g>
   <g id="patch_4">
    <path clip-path="url(#p7ff5b81e1d)" d="
M109.2 319.68
L134 319.68
L134 319.473
L109.2 319.473
z
" style="fill:#ffa500;stroke:#000000;"/>
   </g>
   <g id="patch_5">
    <path clip-path="url(#p7ff5b81e1d)" d="
M134 319.68
L158.8 319.68
L158.8 318.381
L134 318.381
z
" style="fill:#ffa500;stroke:#000000;"/>
   </g>
   <g id="patch_6">
    <path clip-path="url(#p7ff5b81e1d)" d="
M158.8 319.68
L183.6 319.68
L183.6 319.583
L158.8 319.583
z
" style="fill:#ffa500;stroke:#000000;"/>
   </g>
   <g id="patch_7">
    <path clip-path="url(#p7ff5b81e1d)" d="
M183.6 319.68
L208.4 319.68
L208.4 319.113
L183.6 319.113
z
" style="fill:#ffa500;stroke:#000000;"/>
   </g>
   <g id="patch_8">
    <path clip-path="url(#p7ff5b81e1d)" d="
M208.4 319.86
L233.2 319.86
L233.2 319.68
L208.4 319.68
z
" style="fill:#ffa500;stroke:#000000;"/>
   </g>
   <g id="patch_9">
    <path clip-path="url(#p7ff5b81e1d)" d="
M233.2 319.68
L258 319.68
L258 261.633
L233.2 261.633
z
" style="fill:#ffa500;stroke:#000000;"/>
   </g>
   <g id="patch_10">
    <path clip-path="url(#p7ff5b81e1d)" d="
M258 319.68
L282.8 319.68
L282.8 68.7191
L258 68.7191
z
" style="fill:#ffa500;stroke:#000000;"/>
   </g>
   <g id="patch_11">
    <path clip-path="url(#p7ff5b81e1d)" d="
M282.8 319.68
L307.6 319.68
L307.6 318.961
L282.8 318.961
z
" style="fill:#ffa500;stroke:#000000;"/>
   </g>
   <g id="patch_12">
    <path clip-path="url(#p7ff5b81e1d)" d="
M307.6 319.68
L332.4 319.68
L332.4 313.321
L307.6 313.321
z
" style="fill:#ffa500;stroke:#000000;"/>
   </g>
   <g id="patch_13">
    <path clip-path="url(#p7ff5b81e1d)" d="
M332.4 319.68
L357.2 319.68
L357.2 318.228
L332.4 318.228
z
" style="fill:#ffa500;stroke:#000000;"/>
   </g>
   <g id="patch_14">
    <path clip-path="url(#p7ff5b81e1d)" d="
M357.2 319.68
L382 319.68
L382 319.542
L357.2 319.542
z
" style="fill:#ffa500;stroke:#000000;"/>
   </g>
   <g id="patch_15">
    <path clip-path="url(#p7ff5b81e1d)" d="
M382 319.68
L406.8 319.68
L406.8 319.155
L382 319.155
z
" style="fill:#ffa500;stroke:#000000;"/>
   </g>
   <g id="patch_16">
    <path clip-path="url(#p7ff5b81e1d)" d="
M406.8 319.68
L431.6 319.68
L431.6 319.21
L406.8 319.21
z
" style="fill:#ffa500;stroke:#000000;"/>
   </g>
   <g id="patch_17">
    <path clip-path="url(#p7ff5b81e1d)" d="
M431.6 319.804
L456.4 319.804
L456.4 319.68
L431.6 319.68
z
" style="fill:#ffa500;stroke:#000000;"/>
   </g>
   <g id="patch_18">
    <path clip-path="url(#p7ff5b81e1d)" d="
M456.4 320.662
L481.2 320.662
L481.2 319.68
L456.4 319.68
z
" style="fill:#ffa500;stroke:#000000;"/>
   </g>
   <g id="matplotlib.axis_1">
    <g id="xtick_1">
     <g id="line2d_1">
      <path clip-path="url(#p7ff5b81e1d)" d="
M96.8 388.8
L96.8 43.2" style="fill:none;stroke:#000000;stroke-dasharray:1.000000,3.000000;stroke-dashoffset:0.0;stroke-width:0.5;"/>
     </g>
     <g id="line2d_2">
      <defs>
       <path d="
M0 0
L0 -4" id="m93b0483c22" style="stroke:#000000;stroke-width:0.5;"/>
      </defs>
      <g>
       <use style="stroke:#000000;stroke-width:0.5;" x="96.8" xlink:href="#m93b0483c22" y="388.8"/>
      </g>
     </g>
     <g id="line2d_3">
      <defs>
       <path d="
M0 0
L0 4" id="m741efc42ff" style="stroke:#000000;stroke-width:0.5;"/>
      </defs>
      <g>
       <use style="stroke:#000000;stroke-width:0.5;" x="96.8" xlink:href="#m741efc42ff" y="43.2"/>
      </g>
     </g>
     <g id="text_1">
      <!-- 1 -->
      <defs>
       <path d="
M12.4062 8.29688
L28.5156 8.29688
L28.5156 63.9219
L10.9844 60.4062
L10.9844 69.3906
L28.4219 72.9062
L38.2812 72.9062
L38.2812 8.29688
L54.3906 8.29688
L54.3906 0
L12.4062 0
z
" id="DejaVuSans-31"/>
      </defs>
      <g transform="translate(94.195625 401.918125)scale(0.12 -0.12)">
       <use xlink:href="#DejaVuSans-31"/>
      </g>
     </g>
    </g>
    <g id="xtick_2">
     <g id="line2d_4">
      <path clip-path="url(#p7ff5b81e1d)" d="
M121.6 388.8
L121.6 43.2" style="fill:none;stroke:#000000;stroke-dasharray:1.000000,3.000000;stroke-dashoffset:0.0;stroke-width:0.5;"/>
     </g>
     <g id="line2d_5">
      <g>
       <use style="stroke:#000000;stroke-width:0.5;" x="121.6" xlink:href="#m93b0483c22" y="388.8"/>
      </g>
     </g>
     <g id="line2d_6">
      <g>
       <use style="stroke:#000000;stroke-width:0.5;" x="121.6" xlink:href="#m741efc42ff" y="43.2"/>
      </g>
     </g>
     <g id="text_2">
      <!-- 2 -->
      <defs>
       <path d="
M19.1875 8.29688
L53.6094 8.29688
L53.6094 0
L7.32812 0
L7.32812 8.29688
Q12.9375 14.1094 22.625 23.8906
Q32.3281 33.6875 34.8125 36.5312
Q39.5469 41.8438 41.4219 45.5312
Q43.3125 49.2188 43.3125 52.7812
Q43.3125 58.5938 39.2344 62.25
Q35.1562 65.9219 28.6094 65.9219
Q23.9688 65.9219 18.8125 64.3125
Q13.6719 62.7031 7.8125 59.4219
L7.8125 69.3906
Q13.7656 71.7812 18.9375 73
Q24.125 74.2188 28.4219 74.2188
Q39.75 74.2188 46.4844 68.5469
Q53.2188 62.8906 53.2188 53.4219
Q53.2188 48.9219 51.5312 44.8906
Q49.8594 40.875 45.4062 35.4062
Q44.1875 33.9844 37.6406 27.2188
Q31.1094 20.4531 19.1875 8.29688" id="DejaVuSans-32"/>
      </defs>
      <g transform="translate(118.823125 401.918125)scale(0.12 -0.12)">
       <use xlink:href="#DejaVuSans-32"/>
      </g>
     </g>
    </g>
    <g id="xtick_3">
     <g id="line2d_7">
      <path clip-path="url(#p7ff5b81e1d)" d="
M146.4 388.8
L146.4 43.2" style="fill:none;stroke:#000000;stroke-dasharray:1.000000,3.000000;stroke-dashoffset:0.0;stroke-width:0.5;"/>
     </g>
     <g id="line2d_8">
      <g>
       <use style="stroke:#000000;stroke-width:0.5;" x="146.4" xlink:href="#m93b0483c22" y="388.8"/>
      </g>
     </g>
     <g id="line2d_9">
      <g>
       <use style="stroke:#000000;stroke-width:0.5;" x="146.4" xlink:href="#m741efc42ff" y="43.2"/>
      </g>
     </g>
     <g id="text_3">
      <!-- 3 -->
      <defs>
       <path d="
M40.5781 39.3125
Q47.6562 37.7969 51.625 33
Q55.6094 28.2188 55.6094 21.1875
Q55.6094 10.4062 48.1875 4.48438
Q40.7656 -1.42188 27.0938 -1.42188
Q22.5156 -1.42188 17.6562 -0.515625
Q12.7969 0.390625 7.625 2.20312
L7.625 11.7188
Q11.7188 9.32812 16.5938 8.10938
Q21.4844 6.89062 26.8125 6.89062
Q36.0781 6.89062 40.9375 10.5469
Q45.7969 14.2031 45.7969 21.1875
Q45.7969 27.6406 41.2812 31.2656
Q36.7656 34.9062 28.7188 34.9062
L20.2188 34.9062
L20.2188 43.0156
L29.1094 43.0156
Q36.375 43.0156 40.2344 45.9219
Q44.0938 48.8281 44.0938 54.2969
Q44.0938 59.9062 40.1094 62.9062
Q36.1406 65.9219 28.7188 65.9219
Q24.6562 65.9219 20.0156 65.0312
Q15.375 64.1562 9.8125 62.3125
L9.8125 71.0938
Q15.4375 72.6562 20.3438 73.4375
Q25.25 74.2188 29.5938 74.2188
Q40.8281 74.2188 47.3594 69.1094
Q53.9062 64.0156 53.9062 55.3281
Q53.9062 49.2656 50.4375 45.0938
Q46.9688 40.9219 40.5781 39.3125" id="DejaVuSans-33"/>
      </defs>
      <g transform="translate(143.5209375 401.918125)scale(0.12 -0.12)">
       <use xlink:href="#DejaVuSans-33"/>
      </g>
     </g>
    </g>
    <g id="xtick_4">
     <g id="line2d_10">
      <path clip-path="url(#p7ff5b81e1d)" d="
M171.2 388.8
L171.2 43.2" style="fill:none;stroke:#000000;stroke-dasharray:1.000000,3.000000;stroke-dashoffset:0.0;stroke-width:0.5;"/>
     </g>
     <g id="line2d_11">
      <g>
       <use style="stroke:#000000;stroke-width:0.5;" x="171.2" xlink:href="#m93b0483c22" y="388.8"/>
      </g>
     </g>
     <g id="line2d_12">
      <g>
       <use style="stroke:#000000;stroke-width:0.5;" x="171.2" xlink:href="#m741efc42ff" y="43.2"/>
      </g>
     </g>
     <g id="text_4">
      <!-- 4 -->
      <defs>
       <path d="
M37.7969 64.3125
L12.8906 25.3906
L37.7969 25.3906
z

M35.2031 72.9062
L47.6094 72.9062
L47.6094 25.3906
L58.0156 25.3906
L58.0156 17.1875
L47.6094 17.1875
L47.6094 0
L37.7969 0
L37.7969 17.1875
L4.89062 17.1875
L4.89062 26.7031
z
" id="DejaVuSans-34"/>
      </defs>
      <g transform="translate(168.0125 401.918125)scale(0.12 -0.12)">
       <use xlink:href="#DejaVuSans-34"/>
      </g>
     </g>
    </g>
    <g id="xtick_5">
     <g id="line2d_13">
      <path clip-path="url(#p7ff5b81e1d)" d="
M196 388.8
L196 43.2" style="fill:none;stroke:#000000;stroke-dasharray:1.000000,3.000000;stroke-dashoffset:0.0;stroke-width:0.5;"/>
     </g>
     <g id="line2d_14">
      <g>
       <use style="stroke:#000000;stroke-width:0.5;" x="196.0" xlink:href="#m93b0483c22" y="388.8"/>
      </g>
     </g>
     <g id="line2d_15">
      <g>
       <use style="stroke:#000000;stroke-width:0.5;" x="196.0" xlink:href="#m741efc42ff" y="43.2"/>
      </g>
     </g>
     <g id="text_5">
      <!-- 5 -->
      <defs>
       <path d="
M10.7969 72.9062
L49.5156 72.9062
L49.5156 64.5938
L19.8281 64.5938
L19.8281 46.7344
Q21.9688 47.4688 24.1094 47.8281
Q26.2656 48.1875 28.4219 48.1875
Q40.625 48.1875 47.75 41.5
Q54.8906 34.8125 54.8906 23.3906
Q54.8906 11.625 47.5625 5.09375
Q40.2344 -1.42188 26.9062 -1.42188
Q22.3125 -1.42188 17.5469 -0.640625
Q12.7969 0.140625 7.71875 1.70312
L7.71875 11.625
Q12.1094 9.23438 16.7969 8.0625
Q21.4844 6.89062 26.7031 6.89062
Q35.1562 6.89062 40.0781 11.3281
Q45.0156 15.7656 45.0156 23.3906
Q45.0156 31 40.0781 35.4375
Q35.1562 39.8906 26.7031 39.8906
Q22.75 39.8906 18.8125 39.0156
Q14.8906 38.1406 10.7969 36.2812
z
" id="DejaVuSans-35"/>
      </defs>
      <g transform="translate(193.1696875 401.918125)scale(0.12 -0.12)">
       <use xlink:href="#DejaVuSans-35"/>
      </g>
     </g>
    </g>
    <g id="xtick_6">
     <g id="line2d_16">
      <path clip-path="url(#p7ff5b81e1d)" d="
M220.8 388.8
L220.8 43.2" style="fill:none;stroke:#000000;stroke-dasharray:1.000000,3.000000;stroke-dashoffset:0.0;stroke-width:0.5;"/>
     </g>
     <g id="line2d_17">
      <g>
       <use style="stroke:#000000;stroke-width:0.5;" x="220.8" xlink:href="#m93b0483c22" y="388.8"/>
      </g>
     </g>
     <g id="line2d_18">
      <g>
       <use style="stroke:#000000;stroke-width:0.5;" x="220.8" xlink:href="#m741efc42ff" y="43.2"/>
      </g>
     </g>
     <g id="text_6">
      <!-- 6 -->
      <defs>
       <path d="
M33.0156 40.375
Q26.375 40.375 22.4844 35.8281
Q18.6094 31.2969 18.6094 23.3906
Q18.6094 15.5312 22.4844 10.9531
Q26.375 6.39062 33.0156 6.39062
Q39.6562 6.39062 43.5312 10.9531
Q47.4062 15.5312 47.4062 23.3906
Q47.4062 31.2969 43.5312 35.8281
Q39.6562 40.375 33.0156 40.375
M52.5938 71.2969
L52.5938 62.3125
Q48.875 64.0625 45.0938 64.9844
Q41.3125 65.9219 37.5938 65.9219
Q27.8281 65.9219 22.6719 59.3281
Q17.5312 52.7344 16.7969 39.4062
Q19.6719 43.6562 24.0156 45.9219
Q28.375 48.1875 33.5938 48.1875
Q44.5781 48.1875 50.9531 41.5156
Q57.3281 34.8594 57.3281 23.3906
Q57.3281 12.1562 50.6875 5.35938
Q44.0469 -1.42188 33.0156 -1.42188
Q20.3594 -1.42188 13.6719 8.26562
Q6.98438 17.9688 6.98438 36.375
Q6.98438 53.6562 15.1875 63.9375
Q23.3906 74.2188 37.2031 74.2188
Q40.9219 74.2188 44.7031 73.4844
Q48.4844 72.75 52.5938 71.2969" id="DejaVuSans-36"/>
      </defs>
      <g transform="translate(217.779375 401.918125)scale(0.12 -0.12)">
       <use xlink:href="#DejaVuSans-36"/>
      </g>
     </g>
    </g>
    <g id="xtick_7">
     <g id="line2d_19">
      <path clip-path="url(#p7ff5b81e1d)" d="
M245.6 388.8
L245.6 43.2" style="fill:none;stroke:#000000;stroke-dasharray:1.000000,3.000000;stroke-dashoffset:0.0;stroke-width:0.5;"/>
     </g>
     <g id="line2d_20">
      <g>
       <use style="stroke:#000000;stroke-width:0.5;" x="245.6" xlink:href="#m93b0483c22" y="388.8"/>
      </g>
     </g>
     <g id="line2d_21">
      <g>
       <use style="stroke:#000000;stroke-width:0.5;" x="245.6" xlink:href="#m741efc42ff" y="43.2"/>
      </g>
     </g>
     <g id="text_7">
      <!-- 7 -->
      <defs>
       <path d="
M8.20312 72.9062
L55.0781 72.9062
L55.0781 68.7031
L28.6094 0
L18.3125 0
L43.2188 64.5938
L8.20312 64.5938
z
" id="DejaVuSans-37"/>
      </defs>
      <g transform="translate(242.7875 401.918125)scale(0.12 -0.12)">
       <use xlink:href="#DejaVuSans-37"/>
      </g>
     </g>
    </g>
    <g id="xtick_8">
     <g id="line2d_22">
      <path clip-path="url(#p7ff5b81e1d)" d="
M270.4 388.8
L270.4 43.2" style="fill:none;stroke:#000000;stroke-dasharray:1.000000,3.000000;stroke-dashoffset:0.0;stroke-width:0.5;"/>
     </g>
     <g id="line2d_23">
      <g>
       <use style="stroke:#000000;stroke-width:0.5;" x="270.4" xlink:href="#m93b0483c22" y="388.8"/>
      </g>
     </g>
     <g id="line2d_24">
      <g>
       <use style="stroke:#000000;stroke-width:0.5;" x="270.4" xlink:href="#m741efc42ff" y="43.2"/>
      </g>
     </g>
     <g id="text_8">
      <!-- 8 -->
      <defs>
       <path d="
M31.7812 34.625
Q24.75 34.625 20.7188 30.8594
Q16.7031 27.0938 16.7031 20.5156
Q16.7031 13.9219 20.7188 10.1562
Q24.75 6.39062 31.7812 6.39062
Q38.8125 6.39062 42.8594 10.1719
Q46.9219 13.9688 46.9219 20.5156
Q46.9219 27.0938 42.8906 30.8594
Q38.875 34.625 31.7812 34.625
M21.9219 38.8125
Q15.5781 40.375 12.0312 44.7188
Q8.5 49.0781 8.5 55.3281
Q8.5 64.0625 14.7188 69.1406
Q20.9531 74.2188 31.7812 74.2188
Q42.6719 74.2188 48.875 69.1406
Q55.0781 64.0625 55.0781 55.3281
Q55.0781 49.0781 51.5312 44.7188
Q48 40.375 41.7031 38.8125
Q48.8281 37.1562 52.7969 32.3125
Q56.7812 27.4844 56.7812 20.5156
Q56.7812 9.90625 50.3125 4.23438
Q43.8438 -1.42188 31.7812 -1.42188
Q19.7344 -1.42188 13.25 4.23438
Q6.78125 9.90625 6.78125 20.5156
Q6.78125 27.4844 10.7812 32.3125
Q14.7969 37.1562 21.9219 38.8125
M18.3125 54.3906
Q18.3125 48.7344 21.8438 45.5625
Q25.3906 42.3906 31.7812 42.3906
Q38.1406 42.3906 41.7188 45.5625
Q45.3125 48.7344 45.3125 54.3906
Q45.3125 60.0625 41.7188 63.2344
Q38.1406 66.4062 31.7812 66.4062
Q25.3906 66.4062 21.8438 63.2344
Q18.3125 60.0625 18.3125 54.3906" id="DejaVuSans-38"/>
      </defs>
      <g transform="translate(267.4 401.918125)scale(0.12 -0.12)">
       <use xlink:href="#DejaVuSans-38"/>
      </g>
     </g>
    </g>
    <g id="xtick_9">
     <g id="line2d_25">
      <path clip-path="url(#p7ff5b81e1d)" d="
M295.2 388.8
L295.2 43.2" style="fill:none;stroke:#000000;stroke-dasharray:1.000000,3.000000;stroke-dashoffset:0.0;stroke-width:0.5;"/>
     </g>
     <g id="line2d_26">
      <g>
       <use style="stroke:#000000;stroke-width:0.5;" x="295.2" xlink:href="#m93b0483c22" y="388.8"/>
      </g>
     </g>
     <g id="line2d_27">
      <g>
       <use style="stroke:#000000;stroke-width:0.5;" x="295.2" xlink:href="#m741efc42ff" y="43.2"/>
      </g>
     </g>
     <g id="text_9">
      <!-- 9 -->
      <defs>
       <path d="
M10.9844 1.51562
L10.9844 10.5
Q14.7031 8.73438 18.5 7.8125
Q22.3125 6.89062 25.9844 6.89062
Q35.75 6.89062 40.8906 13.4531
Q46.0469 20.0156 46.7812 33.4062
Q43.9531 29.2031 39.5938 26.9531
Q35.25 24.7031 29.9844 24.7031
Q19.0469 24.7031 12.6719 31.3125
Q6.29688 37.9375 6.29688 49.4219
Q6.29688 60.6406 12.9375 67.4219
Q19.5781 74.2188 30.6094 74.2188
Q43.2656 74.2188 49.9219 64.5156
Q56.5938 54.8281 56.5938 36.375
Q56.5938 19.1406 48.4062 8.85938
Q40.2344 -1.42188 26.4219 -1.42188
Q22.7031 -1.42188 18.8906 -0.6875
Q15.0938 0.046875 10.9844 1.51562
M30.6094 32.4219
Q37.25 32.4219 41.125 36.9531
Q45.0156 41.5 45.0156 49.4219
Q45.0156 57.2812 41.125 61.8438
Q37.25 66.4062 30.6094 66.4062
Q23.9688 66.4062 20.0938 61.8438
Q16.2188 57.2812 16.2188 49.4219
Q16.2188 41.5 20.0938 36.9531
Q23.9688 32.4219 30.6094 32.4219" id="DejaVuSans-39"/>
      </defs>
      <g transform="translate(292.1821875 401.918125)scale(0.12 -0.12)">
       <use xlink:href="#DejaVuSans-39"/>
      </g>
     </g>
    </g>
    <g id="xtick_10">
     <g id="line2d_28">
      <path clip-path="url(#p7ff5b81e1d)" d="
M320 388.8
L320 43.2" style="fill:none;stroke:#000000;stroke-dasharray:1.000000,3.000000;stroke-dashoffset:0.0;stroke-width:0.5;"/>
     </g>
     <g id="line2d_29">
      <g>
       <use style="stroke:#000000;stroke-width:0.5;" x="320.0" xlink:href="#m93b0483c22" y="388.8"/>
      </g>
     </g>
     <g id="line2d_30">
      <g>
       <use style="stroke:#000000;stroke-width:0.5;" x="320.0" xlink:href="#m741efc42ff" y="43.2"/>
      </g>
     </g>
     <g id="text_10">
      <!-- 10 -->
      <defs>
       <path d="
M31.7812 66.4062
Q24.1719 66.4062 20.3281 58.9062
Q16.5 51.4219 16.5 36.375
Q16.5 21.3906 20.3281 13.8906
Q24.1719 6.39062 31.7812 6.39062
Q39.4531 6.39062 43.2812 13.8906
Q47.125 21.3906 47.125 36.375
Q47.125 51.4219 43.2812 58.9062
Q39.4531 66.4062 31.7812 66.4062
M31.7812 74.2188
Q44.0469 74.2188 50.5156 64.5156
Q56.9844 54.8281 56.9844 36.375
Q56.9844 17.9688 50.5156 8.26562
Q44.0469 -1.42188 31.7812 -1.42188
Q19.5312 -1.42188 13.0625 8.26562
Q6.59375 17.9688 6.59375 36.375
Q6.59375 54.8281 13.0625 64.5156
Q19.5312 74.2188 31.7812 74.2188" id="DejaVuSans-30"/>
      </defs>
      <g transform="translate(313.4225 401.918125)scale(0.12 -0.12)">
       <use xlink:href="#DejaVuSans-31"/>
       <use x="63.623046875" xlink:href="#DejaVuSans-30"/>
      </g>
     </g>
    </g>
    <g id="xtick_11">
     <g id="line2d_31">
      <path clip-path="url(#p7ff5b81e1d)" d="
M344.8 388.8
L344.8 43.2" style="fill:none;stroke:#000000;stroke-dasharray:1.000000,3.000000;stroke-dashoffset:0.0;stroke-width:0.5;"/>
     </g>
     <g id="line2d_32">
      <g>
       <use style="stroke:#000000;stroke-width:0.5;" x="344.8" xlink:href="#m93b0483c22" y="388.8"/>
      </g>
     </g>
     <g id="line2d_33">
      <g>
       <use style="stroke:#000000;stroke-width:0.5;" x="344.8" xlink:href="#m741efc42ff" y="43.2"/>
      </g>
     </g>
     <g id="text_11">
      <!-- 11 -->
      <g transform="translate(338.378125 401.918125)scale(0.12 -0.12)">
       <use xlink:href="#DejaVuSans-31"/>
       <use x="63.623046875" xlink:href="#DejaVuSans-31"/>
      </g>
     </g>
    </g>
    <g id="xtick_12">
     <g id="line2d_34">
      <path clip-path="url(#p7ff5b81e1d)" d="
M369.6 388.8
L369.6 43.2" style="fill:none;stroke:#000000;stroke-dasharray:1.000000,3.000000;stroke-dashoffset:0.0;stroke-width:0.5;"/>
     </g>
     <g id="line2d_35">
      <g>
       <use style="stroke:#000000;stroke-width:0.5;" x="369.6" xlink:href="#m93b0483c22" y="388.8"/>
      </g>
     </g>
     <g id="line2d_36">
      <g>
       <use style="stroke:#000000;stroke-width:0.5;" x="369.6" xlink:href="#m741efc42ff" y="43.2"/>
      </g>
     </g>
     <g id="text_12">
      <!-- 12 -->
      <g transform="translate(363.225 401.918125)scale(0.12 -0.12)">
       <use xlink:href="#DejaVuSans-31"/>
       <use x="63.623046875" xlink:href="#DejaVuSans-32"/>
      </g>
     </g>
    </g>
    <g id="xtick_13">
     <g id="line2d_37">
      <path clip-path="url(#p7ff5b81e1d)" d="
M394.4 388.8
L394.4 43.2" style="fill:none;stroke:#000000;stroke-dasharray:1.000000,3.000000;stroke-dashoffset:0.0;stroke-width:0.5;"/>
     </g>
     <g id="line2d_38">
      <g>
       <use style="stroke:#000000;stroke-width:0.5;" x="394.4" xlink:href="#m93b0483c22" y="388.8"/>
      </g>
     </g>
     <g id="line2d_39">
      <g>
       <use style="stroke:#000000;stroke-width:0.5;" x="394.4" xlink:href="#m741efc42ff" y="43.2"/>
      </g>
     </g>
     <g id="text_13">
      <!-- 13 -->
      <g transform="translate(387.905 401.918125)scale(0.12 -0.12)">
       <use xlink:href="#DejaVuSans-31"/>
       <use x="63.623046875" xlink:href="#DejaVuSans-33"/>
      </g>
     </g>
    </g>
    <g id="xtick_14">
     <g id="line2d_40">
      <path clip-path="url(#p7ff5b81e1d)" d="
M419.2 388.8
L419.2 43.2" style="fill:none;stroke:#000000;stroke-dasharray:1.000000,3.000000;stroke-dashoffset:0.0;stroke-width:0.5;"/>
     </g>
     <g id="line2d_41">
      <g>
       <use style="stroke:#000000;stroke-width:0.5;" x="419.2" xlink:href="#m93b0483c22" y="388.8"/>
      </g>
     </g>
     <g id="line2d_42">
      <g>
       <use style="stroke:#000000;stroke-width:0.5;" x="419.2" xlink:href="#m741efc42ff" y="43.2"/>
      </g>
     </g>
     <g id="text_14">
      <!-- 14 -->
      <g transform="translate(412.560625 401.918125)scale(0.12 -0.12)">
       <use xlink:href="#DejaVuSans-31"/>
       <use x="63.623046875" xlink:href="#DejaVuSans-34"/>
      </g>
     </g>
    </g>
    <g id="xtick_15">
     <g id="line2d_43">
      <path clip-path="url(#p7ff5b81e1d)" d="
M444 388.8
L444 43.2" style="fill:none;stroke:#000000;stroke-dasharray:1.000000,3.000000;stroke-dashoffset:0.0;stroke-width:0.5;"/>
     </g>
     <g id="line2d_44">
      <g>
       <use style="stroke:#000000;stroke-width:0.5;" x="444.0" xlink:href="#m93b0483c22" y="388.8"/>
      </g>
     </g>
     <g id="line2d_45">
      <g>
       <use style="stroke:#000000;stroke-width:0.5;" x="444.0" xlink:href="#m741efc42ff" y="43.2"/>
      </g>
     </g>
     <g id="text_15">
      <!-- 15 -->
      <g transform="translate(437.548125 401.918125)scale(0.12 -0.12)">
       <use xlink:href="#DejaVuSans-31"/>
       <use x="63.623046875" xlink:href="#DejaVuSans-35"/>
      </g>
     </g>
    </g>
    <g id="xtick_16">
     <g id="line2d_46">
      <path clip-path="url(#p7ff5b81e1d)" d="
M468.8 388.8
L468.8 43.2" style="fill:none;stroke:#000000;stroke-dasharray:1.000000,3.000000;stroke-dashoffset:0.0;stroke-width:0.5;"/>
     </g>
     <g id="line2d_47">
      <g>
       <use style="stroke:#000000;stroke-width:0.5;" x="468.8" xlink:href="#m93b0483c22" y="388.8"/>
      </g>
     </g>
     <g id="line2d_48">
      <g>
       <use style="stroke:#000000;stroke-width:0.5;" x="468.8" xlink:href="#m741efc42ff" y="43.2"/>
      </g>
     </g>
     <g id="text_16">
      <!-- 16 -->
      <g transform="translate(462.201875 401.918125)scale(0.12 -0.12)">
       <use xlink:href="#DejaVuSans-31"/>
       <use x="63.623046875" xlink:href="#DejaVuSans-36"/>
      </g>
     </g>
    </g>
    <g id="text_17">
     <!-- Hops -->
     <defs>
      <path d="
M30.6094 48.3906
Q23.3906 48.3906 19.1875 42.75
Q14.9844 37.1094 14.9844 27.2969
Q14.9844 17.4844 19.1562 11.8438
Q23.3438 6.20312 30.6094 6.20312
Q37.7969 6.20312 41.9844 11.8594
Q46.1875 17.5312 46.1875 27.2969
Q46.1875 37.0156 41.9844 42.7031
Q37.7969 48.3906 30.6094 48.3906
M30.6094 56
Q42.3281 56 49.0156 48.375
Q55.7188 40.7656 55.7188 27.2969
Q55.7188 13.875 49.0156 6.21875
Q42.3281 -1.42188 30.6094 -1.42188
Q18.8438 -1.42188 12.1719 6.21875
Q5.51562 13.875 5.51562 27.2969
Q5.51562 40.7656 12.1719 48.375
Q18.8438 56 30.6094 56" id="DejaVuSans-6f"/>
      <path d="
M9.8125 72.9062
L19.6719 72.9062
L19.6719 43.0156
L55.5156 43.0156
L55.5156 72.9062
L65.375 72.9062
L65.375 0
L55.5156 0
L55.5156 34.7188
L19.6719 34.7188
L19.6719 0
L9.8125 0
z
" id="DejaVuSans-48"/>
      <path d="
M18.1094 8.20312
L18.1094 -20.7969
L9.07812 -20.7969
L9.07812 54.6875
L18.1094 54.6875
L18.1094 46.3906
Q20.9531 51.2656 25.2656 53.625
Q29.5938 56 35.5938 56
Q45.5625 56 51.7812 48.0938
Q58.0156 40.1875 58.0156 27.2969
Q58.0156 14.4062 51.7812 6.48438
Q45.5625 -1.42188 35.5938 -1.42188
Q29.5938 -1.42188 25.2656 0.953125
Q20.9531 3.32812 18.1094 8.20312
M48.6875 27.2969
Q48.6875 37.2031 44.6094 42.8438
Q40.5312 48.4844 33.4062 48.4844
Q26.2656 48.4844 22.1875 42.8438
Q18.1094 37.2031 18.1094 27.2969
Q18.1094 17.3906 22.1875 11.75
Q26.2656 6.10938 33.4062 6.10938
Q40.5312 6.10938 44.6094 11.75
Q48.6875 17.3906 48.6875 27.2969" id="DejaVuSans-70"/>
      <path d="
M44.2812 53.0781
L44.2812 44.5781
Q40.4844 46.5312 36.375 47.5
Q32.2812 48.4844 27.875 48.4844
Q21.1875 48.4844 17.8438 46.4375
Q14.5 44.3906 14.5 40.2812
Q14.5 37.1562 16.8906 35.375
Q19.2812 33.5938 26.5156 31.9844
L29.5938 31.2969
Q39.1562 29.25 43.1875 25.5156
Q47.2188 21.7812 47.2188 15.0938
Q47.2188 7.46875 41.1875 3.01562
Q35.1562 -1.42188 24.6094 -1.42188
Q20.2188 -1.42188 15.4531 -0.5625
Q10.6875 0.296875 5.42188 2
L5.42188 11.2812
Q10.4062 8.6875 15.2344 7.39062
Q20.0625 6.10938 24.8125 6.10938
Q31.1562 6.10938 34.5625 8.28125
Q37.9844 10.4531 37.9844 14.4062
Q37.9844 18.0625 35.5156 20.0156
Q33.0625 21.9688 24.7031 23.7812
L21.5781 24.5156
Q13.2344 26.2656 9.51562 29.9062
Q5.8125 33.5469 5.8125 39.8906
Q5.8125 47.6094 11.2812 51.7969
Q16.75 56 26.8125 56
Q31.7812 56 36.1719 55.2656
Q40.5781 54.5469 44.2812 53.0781" id="DejaVuSans-73"/>
     </defs>
     <g transform="translate(280.963125 418.531875)scale(0.12 -0.12)">
      <use xlink:href="#DejaVuSans-48"/>
      <use x="75.1953125" xlink:href="#DejaVuSans-6f"/>
      <use x="136.376953125" xlink:href="#DejaVuSans-70"/>
      <use x="199.853515625" xlink:href="#DejaVuSans-73"/>
     </g>
    </g>
   </g>
   <g id="matplotlib.axis_2">
    <g id="ytick_1">
     <g id="line2d_49">
      <path clip-path="url(#p7ff5b81e1d)" d="
M72 388.8
L518.4 388.8" style="fill:none;stroke:#000000;stroke-dasharray:1.000000,3.000000;stroke-dashoffset:0.0;stroke-width:0.5;"/>
     </g>
     <g id="line2d_50">
      <defs>
       <path d="
M0 0
L4 0" id="m728421d6d4" style="stroke:#000000;stroke-width:0.5;"/>
      </defs>
      <g>
       <use style="stroke:#000000;stroke-width:0.5;" x="72.0" xlink:href="#m728421d6d4" y="388.8"/>
      </g>
     </g>
     <g id="line2d_51">
      <defs>
       <path d="
M0 0
L-4 0" id="mcb0005524f" style="stroke:#000000;stroke-width:0.5;"/>
      </defs>
      <g>
       <use style="stroke:#000000;stroke-width:0.5;" x="518.4" xlink:href="#mcb0005524f" y="388.8"/>
      </g>
     </g>
     <g id="text_18">
      <!-- −50 -->
      <defs>
       <path d="
M10.5938 35.5
L73.1875 35.5
L73.1875 27.2031
L10.5938 27.2031
z
" id="DejaVuSans-2212"/>
      </defs>
      <g transform="translate(44.7425 392.11125)scale(0.12 -0.12)">
       <use xlink:href="#DejaVuSans-2212"/>
       <use x="83.7890625" xlink:href="#DejaVuSans-35"/>
       <use x="147.412109375" xlink:href="#DejaVuSans-30"/>
      </g>
     </g>
    </g>
    <g id="ytick_2">
     <g id="line2d_52">
      <path clip-path="url(#p7ff5b81e1d)" d="
M72 319.68
L518.4 319.68" style="fill:none;stroke:#000000;stroke-dasharray:1.000000,3.000000;stroke-dashoffset:0.0;stroke-width:0.5;"/>
     </g>
     <g id="line2d_53">
      <g>
       <use style="stroke:#000000;stroke-width:0.5;" x="72.0" xlink:href="#m728421d6d4" y="319.68"/>
      </g>
     </g>
     <g id="line2d_54">
      <g>
       <use style="stroke:#000000;stroke-width:0.5;" x="518.4" xlink:href="#mcb0005524f" y="319.68"/>
      </g>
     </g>
     <g id="text_19">
      <!-- 0 -->
      <g transform="translate(61.953125 322.99125)scale(0.12 -0.12)">
       <use xlink:href="#DejaVuSans-30"/>
      </g>
     </g>
    </g>
    <g id="ytick_3">
     <g id="line2d_55">
      <path clip-path="url(#p7ff5b81e1d)" d="
M72 250.56
L518.4 250.56" style="fill:none;stroke:#000000;stroke-dasharray:1.000000,3.000000;stroke-dashoffset:0.0;stroke-width:0.5;"/>
     </g>
     <g id="line2d_56">
      <g>
       <use style="stroke:#000000;stroke-width:0.5;" x="72.0" xlink:href="#m728421d6d4" y="250.56"/>
      </g>
     </g>
     <g id="line2d_57">
      <g>
       <use style="stroke:#000000;stroke-width:0.5;" x="518.4" xlink:href="#mcb0005524f" y="250.56"/>
      </g>
     </g>
     <g id="text_20">
      <!-- 50 -->
      <g transform="translate(54.453125 253.87125)scale(0.12 -0.12)">
       <use xlink:href="#DejaVuSans-35"/>
       <use x="63.623046875" xlink:href="#DejaVuSans-30"/>
      </g>
     </g>
    </g>
    <g id="ytick_4">
     <g id="line2d_58">
      <path clip-path="url(#p7ff5b81e1d)" d="
M72 181.44
L518.4 181.44" style="fill:none;stroke:#000000;stroke-dasharray:1.000000,3.000000;stroke-dashoffset:0.0;stroke-width:0.5;"/>
     </g>
     <g id="line2d_59">
      <g>
       <use style="stroke:#000000;stroke-width:0.5;" x="72.0" xlink:href="#m728421d6d4" y="181.44"/>
      </g>
     </g>
     <g id="line2d_60">
      <g>
       <use style="stroke:#000000;stroke-width:0.5;" x="518.4" xlink:href="#mcb0005524f" y="181.44"/>
      </g>
     </g>
     <g id="text_21">
      <!-- 100 -->
      <g transform="translate(47.21 184.75125)scale(0.12 -0.12)">
       <use xlink:href="#DejaVuSans-31"/>
       <use x="63.623046875" xlink:href="#DejaVuSans-30"/>
       <use x="127.24609375" xlink:href="#DejaVuSans-30"/>
      </g>
     </g>
    </g>
    <g id="ytick_5">
     <g id="line2d_61">
      <path clip-path="url(#p7ff5b81e1d)" d="
M72 112.32
L518.4 112.32" style="fill:none;stroke:#000000;stroke-dasharray:1.000000,3.000000;stroke-dashoffset:0.0;stroke-width:0.5;"/>
     </g>
     <g id="line2d_62">
      <g>
       <use style="stroke:#000000;stroke-width:0.5;" x="72.0" xlink:href="#m728421d6d4" y="112.32"/>
      </g>
     </g>
     <g id="line2d_63">
      <g>
       <use style="stroke:#000000;stroke-width:0.5;" x="518.4" xlink:href="#mcb0005524f" y="112.32"/>
      </g>
     </g>
     <g id="text_22">
      <!-- 150 -->
      <g transform="translate(47.21 115.63125)scale(0.12 -0.12)">
       <use xlink:href="#DejaVuSans-31"/>
       <use x="63.623046875" xlink:href="#DejaVuSans-35"/>
       <use x="127.24609375" xlink:href="#DejaVuSans-30"/>
      </g>
     </g>
    </g>
    <g id="ytick_6">
     <g id="line2d_64">
      <path clip-path="url(#p7ff5b81e1d)" d="
M72 43.2
L518.4 43.2" style="fill:none;stroke:#000000;stroke-dasharray:1.000000,3.000000;stroke-dashoffset:0.0;stroke-width:0.5;"/>
     </g>
     <g id="line2d_65">
      <g>
       <use style="stroke:#000000;stroke-width:0.5;" x="72.0" xlink:href="#m728421d6d4" y="43.2"/>
      </g>
     </g>
     <g id="line2d_66">
      <g>
       <use style="stroke:#000000;stroke-width:0.5;" x="518.4" xlink:href="#mcb0005524f" y="43.2"/>
      </g>
     </g>
     <g id="text_23">
      <!-- 200 -->
      <g transform="translate(46.77125 46.51125)scale(0.12 -0.12)">
       <use xlink:href="#DejaVuSans-32"/>
       <use x="63.623046875" xlink:href="#DejaVuSans-30"/>
       <use x="127.24609375" xlink:href="#DejaVuSans-30"/>
      </g>
     </g>
    </g>
    <g id="text_24">
     <!-- RTT -->
     <defs>
      <path d="
M44.3906 34.1875
Q47.5625 33.1094 50.5625 29.5938
Q53.5625 26.0781 56.5938 19.9219
L66.6094 0
L56 0
L46.6875 18.7031
Q43.0625 26.0312 39.6719 28.4219
Q36.2812 30.8125 30.4219 30.8125
L19.6719 30.8125
L19.6719 0
L9.8125 0
L9.8125 72.9062
L32.0781 72.9062
Q44.5781 72.9062 50.7344 67.6719
Q56.8906 62.4531 56.8906 51.9062
Q56.8906 45.0156 53.6875 40.4688
Q50.4844 35.9375 44.3906 34.1875
M19.6719 64.7969
L19.6719 38.9219
L32.0781 38.9219
Q39.2031 38.9219 42.8438 42.2188
Q46.4844 45.5156 46.4844 51.9062
Q46.4844 58.2969 42.8438 61.5469
Q39.2031 64.7969 32.0781 64.7969
z
" id="DejaVuSans-52"/>
      <path d="
M-0.296875 72.9062
L61.375 72.9062
L61.375 64.5938
L35.5 64.5938
L35.5 0
L25.5938 0
L25.5938 64.5938
L-0.296875 64.5938
z
" id="DejaVuSans-54"/>
     </defs>
     <g transform="translate(37.246875 226.3875)rotate(-90.0)scale(0.12 -0.12)">
      <use xlink:href="#DejaVuSans-52"/>
      <use x="62.232421875" xlink:href="#DejaVuSans-54"/>
      <use x="121.56640625" xlink:href="#DejaVuSans-54"/>
     </g>
    </g>
   </g>
   <g id="patch_19">
    <path d="
M72 43.2
L518.4 43.2" style="fill:none;stroke:#000000;"/>
   </g>
   <g id="patch_20">
    <path d="
M518.4 388.8
L518.4 43.2" style="fill:none;stroke:#000000;"/>
   </g>
   <g id="patch_21">
    <path d="
M72 388.8
L518.4 388.8" style="fill:none;stroke:#000000;"/>
   </g>
   <g id="patch_22">
    <path d="
M72 388.8
L72 43.2" style="fill:none;stroke:#000000;"/>
   </g>
   <g id="text_25">
    <g id="patch_23">
     <path d="
M96.8 324.393
L218.791 324.393
Q222.391 324.393 222.391 320.793
L222.391 80.7441
Q222.391 77.1441 218.791 77.1441
L96.8 77.1441
Q93.2 77.1441 93.2 80.7441
L93.2 320.793
Q93.2 324.393 96.8 324.393
z
" style="fill:#f5deb3;opacity:0.5;stroke:#000000;"/>
    </g>
    <!-- Hops - IP Table -->
    <defs>
     <path d="
M25.3906 -1.42188
Q15.7656 -1.42188 10.1719 4.51562
Q4.59375 10.4531 4.59375 20.7031
Q4.59375 26.6562 6.51562 32.8281
Q8.45312 39.0156 11.5312 43.2188
Q16.3594 49.75 22.3125 52.875
Q28.2656 56 35.7969 56
Q45.125 56 50.8594 50.1875
Q56.5938 44.3906 56.5938 35.0156
Q56.5938 28.5156 54.6875 22.0625
Q52.7812 15.625 49.7031 11.375
Q44.9219 4.82812 38.9688 1.70312
Q33.0156 -1.42188 25.3906 -1.42188
M13.9219 21
Q13.9219 13.5781 17.0156 9.89062
Q20.125 6.20312 26.4219 6.20312
Q35.4531 6.20312 41.375 14.0781
Q47.3125 21.9688 47.3125 34.0781
Q47.3125 41.1562 44.1406 44.7656
Q40.9688 48.3906 34.8125 48.3906
Q29.7344 48.3906 25.7812 46.0156
Q21.8281 43.6562 18.7031 38.8125
Q16.4062 35.2031 15.1562 30.5625
Q13.9219 25.9219 13.9219 21" id="DejaVuSans-Oblique-6f"/>
     <path d="
M16.8906 72.9062
L26.8125 72.9062
L21 43.0156
L56.7812 43.0156
L62.5938 72.9062
L72.5156 72.9062
L58.2969 0
L48.3906 0
L55.1719 34.7188
L19.3906 34.7188
L12.5938 0
L2.6875 0
z
" id="DejaVuSans-Oblique-48"/>
     <path d="
M16.8906 72.9062
L26.8125 72.9062
L12.5938 0
L2.6875 0
z
" id="DejaVuSans-Oblique-49"/>
     <path d="
M50 53.0781
L48.2969 44.5781
Q44.7344 46.5312 40.7656 47.5
Q36.8125 48.4844 32.625 48.4844
Q25.5312 48.4844 21.4531 46.0625
Q17.3906 43.6562 17.3906 39.5
Q17.3906 34.6719 26.8594 32.0781
Q27.5938 31.8906 27.9375 31.7812
L30.8125 30.9062
Q39.7969 28.4219 42.7969 25.6875
Q45.7969 22.9531 45.7969 18.2188
Q45.7969 9.51562 38.8906 4.04688
Q31.9844 -1.42188 20.7969 -1.42188
Q16.4531 -1.42188 11.6719 -0.578125
Q6.89062 0.25 1.125 2
L2.875 11.2812
Q7.8125 8.73438 12.5938 7.42188
Q17.3906 6.10938 21.7812 6.10938
Q28.375 6.10938 32.5 8.9375
Q36.625 11.7656 36.625 16.1094
Q36.625 20.7969 25.7812 23.6875
L24.8594 23.9219
L21.7812 24.7031
Q14.9375 26.5156 11.7656 29.4688
Q8.59375 32.4219 8.59375 37.0156
Q8.59375 45.75 15.1562 50.875
Q21.7344 56 33.0156 56
Q37.4531 56 41.6719 55.2656
Q45.9062 54.5469 50 53.0781" id="DejaVuSans-Oblique-73"/>
     <path d="
M5.90625 72.9062
L67.5781 72.9062
L66.0156 64.5938
L39.9844 64.5938
L27.4844 0
L17.5781 0
L30.0781 64.5938
L4.29688 64.5938
z
" id="DejaVuSans-Oblique-54"/>
     <path d="
M49.6094 33.6875
Q49.6094 40.875 46.4844 44.6719
Q43.3594 48.4844 37.5 48.4844
Q33.5 48.4844 29.8594 46.4375
Q26.2188 44.3906 23.3906 40.4844
Q20.6094 36.625 18.9375 31.1562
Q17.2812 25.6875 17.2812 20.3125
Q17.2812 13.4844 20.4062 9.79688
Q23.5312 6.10938 29.2969 6.10938
Q33.5469 6.10938 37.1875 8.10938
Q40.8281 10.1094 43.4062 13.9219
Q46.1875 17.9219 47.8906 23.3438
Q49.6094 28.7656 49.6094 33.6875
M21.7812 46.3906
Q25.3906 51.125 30.2969 53.5625
Q35.2031 56 41.2188 56
Q49.6094 56 54.25 50.5
Q58.8906 45.0156 58.8906 35.1094
Q58.8906 27 56 19.6562
Q53.125 12.3125 47.7031 6.5
Q44.0938 2.64062 39.5469 0.609375
Q35.0156 -1.42188 29.9844 -1.42188
Q24.1719 -1.42188 20.2188 1
Q16.2656 3.42188 14.3125 8.20312
L8.6875 -20.7969
L-0.296875 -20.7969
L14.4062 54.6875
L23.3906 54.6875
z
" id="DejaVuSans-Oblique-70"/>
     <path d="
M6.10938 31.3906
L32.4219 31.3906
L30.9062 23.3906
L4.5 23.3906
z
" id="DejaVuSans-Oblique-2d"/>
     <path d="
M16.8906 72.9062
L39.7031 72.9062
Q49.6562 72.9062 54.875 68.2656
Q60.1094 63.625 60.1094 54.6875
Q60.1094 42.6719 52.3906 35.9844
Q44.6719 29.2969 30.7188 29.2969
L18.3125 29.2969
L12.5938 0
L2.6875 0
z

M25.2031 64.7969
L19.9219 37.4062
L32.3281 37.4062
Q40.7188 37.4062 45.2031 41.7031
Q49.7031 46 49.7031 54
Q49.7031 59.125 46.6562 61.9531
Q43.6094 64.7969 38.0938 64.7969
z
" id="DejaVuSans-Oblique-50"/>
     <path d="
M18.3125 75.9844
L27.2969 75.9844
L12.5 0
L3.51562 0
z
" id="DejaVuSans-Oblique-6c"/>
     <path d="
M48.0938 32.2344
Q48.25 33.0156 48.3125 33.8438
Q48.3906 34.6719 48.3906 35.5
Q48.3906 41.4531 44.8906 44.9219
Q41.4062 48.3906 35.4062 48.3906
Q28.7188 48.3906 23.5781 44.1562
Q18.4531 39.9375 15.8281 32.1719
z

M55.9062 25.2031
L14.1094 25.2031
Q13.8125 23.3438 13.7188 22.2656
Q13.625 21.1875 13.625 20.4062
Q13.625 13.625 17.7969 9.90625
Q21.9688 6.20312 29.5938 6.20312
Q35.4531 6.20312 40.6719 7.51562
Q45.9062 8.84375 50.3906 11.375
L48.6875 2.48438
Q43.8438 0.53125 38.6875 -0.4375
Q33.5469 -1.42188 28.2188 -1.42188
Q16.8438 -1.42188 10.7188 4.01562
Q4.59375 9.46875 4.59375 19.4844
Q4.59375 28.0312 7.64062 35.375
Q10.6875 42.7188 16.6094 48.4844
Q20.4062 52.0938 25.6562 54.0469
Q30.9062 56 36.8125 56
Q46.0938 56 51.5781 50.4375
Q57.0781 44.875 57.0781 35.5
Q57.0781 33.25 56.7812 30.6875
Q56.5 28.125 55.9062 25.2031" id="DejaVuSans-Oblique-65"/>
     <path d="
M53.7188 31.2031
L47.6094 0
L38.625 0
L40.2812 8.29688
Q36.3281 3.42188 31.2656 1
Q26.2188 -1.42188 20.0156 -1.42188
Q13.0312 -1.42188 8.5625 2.84375
Q4.10938 7.125 4.10938 13.8125
Q4.10938 23.3906 11.75 28.9531
Q19.3906 34.5156 32.8125 34.5156
L45.3125 34.5156
L45.7969 36.9219
Q45.9062 37.3125 45.9531 37.7656
Q46 38.2344 46 39.2031
Q46 43.5625 42.4531 45.9688
Q38.9219 48.3906 32.5156 48.3906
Q28.125 48.3906 23.5 47.2656
Q18.8906 46.1406 14.0156 43.8906
L15.5781 52.2031
Q20.6562 54.1094 25.5156 55.0469
Q30.375 56 34.9062 56
Q44.5781 56 49.625 51.7969
Q54.6875 47.6094 54.6875 39.5938
Q54.6875 37.9844 54.4375 35.8125
Q54.2031 33.6406 53.7188 31.2031
M44 27.4844
L35.0156 27.4844
Q23.9688 27.4844 18.6719 24.5312
Q13.375 21.5781 13.375 15.375
Q13.375 11.0781 16.0781 8.64062
Q18.7969 6.20312 23.5781 6.20312
Q30.9062 6.20312 36.375 11.4531
Q41.8438 16.7031 43.6094 25.4844
z
" id="DejaVuSans-Oblique-61"/>
     <path d="
M49.5156 33.4062
Q49.5156 40.4844 46.2656 44.4844
Q43.0156 48.4844 37.3125 48.4844
Q33.1562 48.4844 29.5156 46.4531
Q25.875 44.4375 23.1875 40.5781
Q20.3594 36.5312 18.7188 31.1719
Q17.0938 25.8281 17.0938 20.5156
Q17.0938 13.7656 20.2812 9.9375
Q23.4844 6.10938 29.1094 6.10938
Q33.3438 6.10938 36.9531 8.07812
Q40.5781 10.0625 43.3125 13.9219
Q46.0938 17.9219 47.7969 23.2344
Q49.5156 28.5625 49.5156 33.4062
M21.5781 46.3906
Q24.9062 50.875 29.9062 53.4375
Q34.9062 56 40.375 56
Q48.7812 56 53.7344 50.3281
Q58.6875 44.6719 58.6875 35.0156
Q58.6875 27.0938 55.7812 19.6719
Q52.875 12.25 47.5156 6.5
Q44 2.6875 39.4062 0.625
Q34.8125 -1.42188 29.7812 -1.42188
Q24.4688 -1.42188 20.5625 1.01562
Q16.6562 3.46875 14.2031 8.29688
L12.5938 0
L3.60938 0
L18.4062 75.9844
L27.3906 75.9844
z
" id="DejaVuSans-Oblique-62"/>
     <path id="DejaVuSans-Oblique-20"/>
    </defs>
    <g transform="translate(96.8 89.862225)scale(0.12 -0.12)">
     <use xlink:href="#DejaVuSans-Oblique-48"/>
     <use x="75.1953125" xlink:href="#DejaVuSans-Oblique-6f"/>
     <use x="136.376953125" xlink:href="#DejaVuSans-Oblique-70"/>
     <use x="199.853515625" xlink:href="#DejaVuSans-Oblique-73"/>
     <use x="251.953125" xlink:href="#DejaVuSans-Oblique-20"/>
     <use x="283.740234375" xlink:href="#DejaVuSans-Oblique-2d"/>
     <use x="319.82421875" xlink:href="#DejaVuSans-Oblique-20"/>
     <use x="351.611328125" xlink:href="#DejaVuSans-Oblique-49"/>
     <use x="381.103515625" xlink:href="#DejaVuSans-Oblique-50"/>
     <use x="441.40625" xlink:href="#DejaVuSans-Oblique-20"/>
     <use x="473.193359375" xlink:href="#DejaVuSans-Oblique-54"/>
     <use x="523.77734375" xlink:href="#DejaVuSans-Oblique-61"/>
     <use x="585.056640625" xlink:href="#DejaVuSans-Oblique-62"/>
     <use x="648.533203125" xlink:href="#DejaVuSans-Oblique-6c"/>
     <use x="676.31640625" xlink:href="#DejaVuSans-Oblique-65"/>
    </g>
    <!-- 1 - 10.2.100.254 -->
    <defs>
     <path d="
M8.20312 12.4062
L18.5 12.4062
L16.1094 0
L5.8125 0
z
" id="DejaVuSans-Oblique-2e"/>
     <path d="
M58.1094 72.9062
L56.5938 64.7031
L26.4219 64.7031
L22.9062 46.6875
Q25.1406 47.4062 27.4531 47.75
Q29.7812 48.0938 32.1719 48.0938
Q42.2812 48.0938 48.1406 42.6719
Q54 37.25 54 27.9844
Q54 21.4844 51 15.5312
Q48 9.57812 42.4844 5.07812
Q38.5781 1.95312 32.9375 0.265625
Q27.2969 -1.42188 20.6094 -1.42188
Q16.2188 -1.42188 11.625 -0.640625
Q7.03125 0.140625 2 1.70312
L3.8125 10.8906
Q8.29688 8.6875 12.8125 7.59375
Q17.3281 6.5 21.9219 6.5
Q31.4531 6.5 37.6719 12.2031
Q43.8906 17.9219 43.8906 26.5156
Q43.8906 32.8594 39.8125 36.375
Q35.75 39.8906 28.4219 39.8906
Q24.5625 39.8906 20.3906 38.9844
Q16.2188 38.0938 11.8125 36.2812
L18.8906 72.9062
z
" id="DejaVuSans-Oblique-35"/>
     <path d="
M43.0156 72.9062
L55.4219 72.9062
L46.0938 25.3906
L56.5 25.3906
L54.8906 17.1875
L44.4844 17.1875
L41.2188 0
L31.3906 0
L34.7188 17.1875
L1.8125 17.1875
L3.71875 26.7031
z

M43.8906 64.3125
L11.375 25.3906
L36.2812 25.3906
z
" id="DejaVuSans-Oblique-34"/>
     <path d="
M46.0938 35.2031
L14.5938 8.20312
L49.4219 8.20312
L47.7031 0
L0.390625 0
L2 8.29688
L34.9062 36.5312
Q41.5 42.2344 44.25 46.5469
Q47.0156 50.875 47.0156 55.4219
Q47.0156 60.1562 43.6875 63.125
Q40.375 66.1094 35.0156 66.1094
Q30.375 66.1094 24.7031 64.4531
Q19.0469 62.7969 12.5938 59.625
L14.4062 69.3906
Q20.4531 71.7812 25.9688 73
Q31.5 74.2188 36.1875 74.2188
Q45.75 74.2188 51.5781 69.1406
Q57.4219 64.0625 57.4219 55.8125
Q57.4219 50.25 54.6406 45.1875
Q51.8594 40.1406 46.0938 35.2031" id="DejaVuSans-Oblique-32"/>
     <path d="
M6.5 8.29688
L22.6094 8.29688
L33.5 64.4062
L15.2812 60.8906
L17 69.3906
L35.1094 72.9062
L45.0156 72.9062
L32.4219 8.29688
L48.4844 8.29688
L46.9219 0
L4.89062 0
z
" id="DejaVuSans-Oblique-31"/>
     <path d="
M38.1875 74.2188
Q48.0938 74.2188 53.3438 67.625
Q58.5938 61.0312 58.5938 48.6875
Q58.5938 39.3125 56.125 30.0469
Q53.6562 20.7969 49.2188 13.4844
Q44.6719 6.15625 38.5469 2.35938
Q32.4219 -1.42188 25 -1.42188
Q15.4375 -1.42188 10.2031 5.21875
Q4.98438 11.8594 4.98438 24.125
Q4.98438 33.4062 7.5 42.7031
Q10.0156 52 14.5 59.2812
Q19 66.6094 25.0312 70.4062
Q31.0625 74.2188 38.1875 74.2188
M37.5938 66.4062
Q33.8906 66.4062 30.5469 64.4219
Q27.2031 62.4531 24.5156 58.5938
Q20.0156 52.1562 17.3594 42.5
Q14.7031 32.8594 14.7031 22.7031
Q14.7031 14.6562 17.5469 10.5156
Q20.4062 6.39062 25.9844 6.39062
Q29.8906 6.39062 33.2031 8.375
Q36.5312 10.3594 39.2031 14.2031
Q43.6562 20.6094 46.2656 30.25
Q48.875 39.8906 48.875 50.0938
Q48.875 58.1562 46.0156 62.2812
Q43.1719 66.4062 37.5938 66.4062" id="DejaVuSans-Oblique-30"/>
    </defs>
    <g transform="translate(96.8 103.2996)scale(0.12 -0.12)">
     <use xlink:href="#DejaVuSans-Oblique-31"/>
     <use x="63.623046875" xlink:href="#DejaVuSans-Oblique-20"/>
     <use x="95.41015625" xlink:href="#DejaVuSans-Oblique-2d"/>
     <use x="131.494140625" xlink:href="#DejaVuSans-Oblique-20"/>
     <use x="163.28125" xlink:href="#DejaVuSans-Oblique-31"/>
     <use x="226.904296875" xlink:href="#DejaVuSans-Oblique-30"/>
     <use x="290.52734375" xlink:href="#DejaVuSans-Oblique-2e"/>
     <use x="322.314453125" xlink:href="#DejaVuSans-Oblique-32"/>
     <use x="385.9375" xlink:href="#DejaVuSans-Oblique-2e"/>
     <use x="417.724609375" xlink:href="#DejaVuSans-Oblique-31"/>
     <use x="481.34765625" xlink:href="#DejaVuSans-Oblique-30"/>
     <use x="544.970703125" xlink:href="#DejaVuSans-Oblique-30"/>
     <use x="608.59375" xlink:href="#DejaVuSans-Oblique-2e"/>
     <use x="640.380859375" xlink:href="#DejaVuSans-Oblique-32"/>
     <use x="704.00390625" xlink:href="#DejaVuSans-Oblique-35"/>
     <use x="767.626953125" xlink:href="#DejaVuSans-Oblique-34"/>
    </g>
    <!-- 2 - 157.92.18.99 -->
    <defs>
     <path d="
M12.7969 72.9062
L62.7031 72.9062
L61.8125 68.7031
L20.125 0
L9.28125 0
L48.6875 64.5938
L11.1875 64.5938
z
" id="DejaVuSans-Oblique-37"/>
     <path d="
M4.39062 1.60938
L6.20312 10.5938
Q9.03125 8.73438 12.6406 7.75
Q16.2656 6.78125 20.4062 6.78125
Q30.5156 6.78125 36.6875 13.1719
Q42.875 19.5781 45.9062 33.1094
Q42.2812 28.9531 37.5156 26.7812
Q32.7656 24.6094 27.2969 24.6094
Q18.4062 24.6094 13.1562 29.75
Q7.90625 34.9062 7.90625 43.6094
Q7.90625 50.7344 10.5 56.8594
Q13.0938 62.9844 18.1094 67.5781
Q21.5312 70.7969 26.0156 72.5
Q30.5156 74.2188 35.5938 74.2188
Q45.7031 74.2188 51.5625 67.7969
Q57.4219 61.375 57.4219 50.2969
Q57.4219 39.9844 54.7031 30.3594
Q52 20.75 47.2188 13.7188
Q42.1406 6.29688 35 2.4375
Q27.875 -1.42188 19.1875 -1.42188
Q15.4375 -1.42188 11.6875 -0.65625
Q7.95312 0.09375 4.39062 1.60938
M17.6719 45.9062
Q17.6719 39.7031 20.8906 36.0625
Q24.125 32.4219 29.5938 32.4219
Q37.1562 32.4219 42.2812 38.2344
Q47.4062 44.0469 47.4062 52.6875
Q47.4062 59.125 44.2344 62.7656
Q41.0625 66.4062 35.5 66.4062
Q27.9375 66.4062 22.7969 60.4688
Q17.6719 54.5469 17.6719 45.9062" id="DejaVuSans-Oblique-39"/>
     <path d="
M44.4844 22.125
Q44.4844 27.6406 40.625 31.125
Q36.7656 34.625 30.5156 34.625
Q22.9062 34.625 17.9375 30.0469
Q12.9844 25.4844 12.9844 18.5
Q12.9844 12.9375 16.7656 9.65625
Q20.5625 6.39062 27 6.39062
Q34.6719 6.39062 39.5781 10.8281
Q44.4844 15.2812 44.4844 22.125
M49.5156 56.1094
Q49.5156 60.75 46.0938 63.5781
Q42.6719 66.4062 37.0156 66.4062
Q30.3281 66.4062 26 62.6406
Q21.6875 58.8906 21.6875 53.2188
Q21.6875 48.3438 25.0781 45.3594
Q28.4688 42.3906 34.0781 42.3906
Q40.8281 42.3906 45.1719 46.2656
Q49.5156 50.1406 49.5156 56.1094
M42.8281 38.375
Q48.3438 36.2812 51.2656 32.0312
Q54.2031 27.7812 54.2031 21.7812
Q54.2031 11.6719 46.3906 5.125
Q38.5781 -1.42188 26.2188 -1.42188
Q15.7188 -1.42188 9.51562 3.73438
Q3.32812 8.89062 3.32812 17.4844
Q3.32812 25.2969 8.64062 31.375
Q13.9688 37.4531 22.5156 39.1094
Q17.3906 40.875 14.7031 44.5625
Q12.0156 48.25 12.0156 53.5156
Q12.0156 62.3594 19.3594 68.2812
Q26.7031 74.2188 37.9844 74.2188
Q47.4062 74.2188 53.3438 69.4062
Q59.2812 64.5938 59.2812 57.1719
Q59.2812 50.7344 54.8594 45.6719
Q50.4375 40.625 42.8281 38.375" id="DejaVuSans-Oblique-38"/>
    </defs>
    <g transform="translate(96.8 116.736975)scale(0.12 -0.12)">
     <use xlink:href="#DejaVuSans-Oblique-32"/>
     <use x="63.623046875" xlink:href="#DejaVuSans-Oblique-20"/>
     <use x="95.41015625" xlink:href="#DejaVuSans-Oblique-2d"/>
     <use x="131.494140625" xlink:href="#DejaVuSans-Oblique-20"/>
     <use x="163.28125" xlink:href="#DejaVuSans-Oblique-31"/>
     <use x="226.904296875" xlink:href="#DejaVuSans-Oblique-35"/>
     <use x="290.52734375" xlink:href="#DejaVuSans-Oblique-37"/>
     <use x="354.150390625" xlink:href="#DejaVuSans-Oblique-2e"/>
     <use x="385.9375" xlink:href="#DejaVuSans-Oblique-39"/>
     <use x="449.560546875" xlink:href="#DejaVuSans-Oblique-32"/>
     <use x="513.18359375" xlink:href="#DejaVuSans-Oblique-2e"/>
     <use x="544.970703125" xlink:href="#DejaVuSans-Oblique-31"/>
     <use x="608.59375" xlink:href="#DejaVuSans-Oblique-38"/>
     <use x="672.216796875" xlink:href="#DejaVuSans-Oblique-2e"/>
     <use x="704.00390625" xlink:href="#DejaVuSans-Oblique-39"/>
     <use x="767.626953125" xlink:href="#DejaVuSans-Oblique-39"/>
    </g>
    <!-- 3 - 157.92.47.98 -->
    <defs>
     <path d="
M15.8281 71.0938
Q21.1875 72.6562 26.2344 73.4375
Q31.2969 74.2188 36.1875 74.2188
Q45.8438 74.2188 51.5 69.9219
Q57.1719 65.625 57.1719 58.4062
Q57.1719 51.3125 52.7031 46.2344
Q48.25 41.1562 40.375 39.3125
Q46.5312 37.5469 49.4062 33.8281
Q52.2969 30.125 52.2969 24.0312
Q52.2969 18.1719 49.4844 13.0312
Q46.6875 7.90625 41.4062 4.20312
Q37.4062 1.375 31.8281 -0.015625
Q26.2656 -1.42188 19 -1.42188
Q14.4062 -1.42188 9.71875 -0.515625
Q5.03125 0.390625 0.203125 2.20312
L2 11.5312
Q6.59375 8.98438 11.25 7.73438
Q15.9219 6.5 20.7969 6.5
Q30.4219 6.5 36.4062 11.4531
Q42.3906 16.4062 42.3906 24.3125
Q42.3906 29.3906 38.5781 32.1406
Q34.7656 34.9062 27.6875 34.9062
L19.1875 34.9062
L20.7031 42.9219
L29.6875 42.9219
Q37.7969 42.9219 42.4531 46.625
Q47.125 50.3438 47.125 56.6875
Q47.125 61.2812 43.7031 63.7969
Q40.2812 66.3125 34.0781 66.3125
Q29.3906 66.3125 24.4844 65.3125
Q19.5781 64.3125 14.3125 62.3125
z
" id="DejaVuSans-Oblique-33"/>
    </defs>
    <g transform="translate(96.8 130.17435)scale(0.12 -0.12)">
     <use xlink:href="#DejaVuSans-Oblique-33"/>
     <use x="63.623046875" xlink:href="#DejaVuSans-Oblique-20"/>
     <use x="95.41015625" xlink:href="#DejaVuSans-Oblique-2d"/>
     <use x="131.494140625" xlink:href="#DejaVuSans-Oblique-20"/>
     <use x="163.28125" xlink:href="#DejaVuSans-Oblique-31"/>
     <use x="226.904296875" xlink:href="#DejaVuSans-Oblique-35"/>
     <use x="290.52734375" xlink:href="#DejaVuSans-Oblique-37"/>
     <use x="354.150390625" xlink:href="#DejaVuSans-Oblique-2e"/>
     <use x="385.9375" xlink:href="#DejaVuSans-Oblique-39"/>
     <use x="449.560546875" xlink:href="#DejaVuSans-Oblique-32"/>
     <use x="513.18359375" xlink:href="#DejaVuSans-Oblique-2e"/>
     <use x="544.970703125" xlink:href="#DejaVuSans-Oblique-34"/>
     <use x="608.59375" xlink:href="#DejaVuSans-Oblique-37"/>
     <use x="672.216796875" xlink:href="#DejaVuSans-Oblique-2e"/>
     <use x="704.00390625" xlink:href="#DejaVuSans-Oblique-39"/>
     <use x="767.626953125" xlink:href="#DejaVuSans-Oblique-38"/>
    </g>
    <!-- 4 - 157.92.47.2 -->
    <g transform="translate(96.8 143.611725)scale(0.12 -0.12)">
     <use xlink:href="#DejaVuSans-Oblique-34"/>
     <use x="63.623046875" xlink:href="#DejaVuSans-Oblique-20"/>
     <use x="95.41015625" xlink:href="#DejaVuSans-Oblique-2d"/>
     <use x="131.494140625" xlink:href="#DejaVuSans-Oblique-20"/>
     <use x="163.28125" xlink:href="#DejaVuSans-Oblique-31"/>
     <use x="226.904296875" xlink:href="#DejaVuSans-Oblique-35"/>
     <use x="290.52734375" xlink:href="#DejaVuSans-Oblique-37"/>
     <use x="354.150390625" xlink:href="#DejaVuSans-Oblique-2e"/>
     <use x="385.9375" xlink:href="#DejaVuSans-Oblique-39"/>
     <use x="449.560546875" xlink:href="#DejaVuSans-Oblique-32"/>
     <use x="513.18359375" xlink:href="#DejaVuSans-Oblique-2e"/>
     <use x="544.970703125" xlink:href="#DejaVuSans-Oblique-34"/>
     <use x="608.59375" xlink:href="#DejaVuSans-Oblique-37"/>
     <use x="672.216796875" xlink:href="#DejaVuSans-Oblique-2e"/>
     <use x="704.00390625" xlink:href="#DejaVuSans-Oblique-32"/>
    </g>
    <!-- 5 - 168.96.0.18 -->
    <defs>
     <path d="
M45.9062 27
Q45.9062 33.2031 42.7188 36.7812
Q39.5469 40.375 34.0781 40.375
Q26.5156 40.375 21.3594 34.5469
Q16.2188 28.7188 16.2188 20.125
Q16.2188 13.6719 19.3594 10.0312
Q22.5156 6.39062 28.0781 6.39062
Q35.6875 6.39062 40.7969 12.375
Q45.9062 18.3594 45.9062 27
M59.1875 71.1875
L57.5156 62.2031
Q54.6875 64.0625 51.0156 65.0312
Q47.3594 66.0156 43.2188 66.0156
Q33.1094 66.0156 26.9688 59.6719
Q20.8438 53.3281 17.8281 39.7969
Q21.3906 43.9531 26.0938 46.0625
Q30.8125 48.1875 36.2812 48.1875
Q45.2188 48.1875 50.5156 43.0312
Q55.8125 37.8906 55.8125 29.2031
Q55.8125 22.0781 53.2031 15.9375
Q50.5938 9.8125 45.6094 5.17188
Q42.1875 2 37.6406 0.28125
Q33.1094 -1.42188 27.9844 -1.42188
Q17.9219 -1.42188 12.1094 4.96875
Q6.29688 11.375 6.29688 22.5156
Q6.29688 32.8594 8.95312 42.4531
Q11.625 52.0469 16.4062 59.0781
Q21.4375 66.5 28.5938 70.3594
Q35.75 74.2188 44.3906 74.2188
Q48.1875 74.2188 51.8906 73.4531
Q55.6094 72.7031 59.1875 71.1875" id="DejaVuSans-Oblique-36"/>
    </defs>
    <g transform="translate(96.8 157.0491)scale(0.12 -0.12)">
     <use xlink:href="#DejaVuSans-Oblique-35"/>
     <use x="63.623046875" xlink:href="#DejaVuSans-Oblique-20"/>
     <use x="95.41015625" xlink:href="#DejaVuSans-Oblique-2d"/>
     <use x="131.494140625" xlink:href="#DejaVuSans-Oblique-20"/>
     <use x="163.28125" xlink:href="#DejaVuSans-Oblique-31"/>
     <use x="226.904296875" xlink:href="#DejaVuSans-Oblique-36"/>
     <use x="290.52734375" xlink:href="#DejaVuSans-Oblique-38"/>
     <use x="354.150390625" xlink:href="#DejaVuSans-Oblique-2e"/>
     <use x="385.9375" xlink:href="#DejaVuSans-Oblique-39"/>
     <use x="449.560546875" xlink:href="#DejaVuSans-Oblique-36"/>
     <use x="513.18359375" xlink:href="#DejaVuSans-Oblique-2e"/>
     <use x="544.970703125" xlink:href="#DejaVuSans-Oblique-30"/>
     <use x="608.59375" xlink:href="#DejaVuSans-Oblique-2e"/>
     <use x="640.380859375" xlink:href="#DejaVuSans-Oblique-31"/>
     <use x="704.00390625" xlink:href="#DejaVuSans-Oblique-38"/>
    </g>
    <!-- 6 - 200.0.204.154 -->
    <g transform="translate(96.8 170.486475)scale(0.12 -0.12)">
     <use xlink:href="#DejaVuSans-Oblique-36"/>
     <use x="63.623046875" xlink:href="#DejaVuSans-Oblique-20"/>
     <use x="95.41015625" xlink:href="#DejaVuSans-Oblique-2d"/>
     <use x="131.494140625" xlink:href="#DejaVuSans-Oblique-20"/>
     <use x="163.28125" xlink:href="#DejaVuSans-Oblique-32"/>
     <use x="226.904296875" xlink:href="#DejaVuSans-Oblique-30"/>
     <use x="290.52734375" xlink:href="#DejaVuSans-Oblique-30"/>
     <use x="354.150390625" xlink:href="#DejaVuSans-Oblique-2e"/>
     <use x="385.9375" xlink:href="#DejaVuSans-Oblique-30"/>
     <use x="449.560546875" xlink:href="#DejaVuSans-Oblique-2e"/>
     <use x="481.34765625" xlink:href="#DejaVuSans-Oblique-32"/>
     <use x="544.970703125" xlink:href="#DejaVuSans-Oblique-30"/>
     <use x="608.59375" xlink:href="#DejaVuSans-Oblique-34"/>
     <use x="672.216796875" xlink:href="#DejaVuSans-Oblique-2e"/>
     <use x="704.00390625" xlink:href="#DejaVuSans-Oblique-31"/>
     <use x="767.626953125" xlink:href="#DejaVuSans-Oblique-35"/>
     <use x="831.25" xlink:href="#DejaVuSans-Oblique-34"/>
    </g>
    <!-- 7 - 200.0.204.63 -->
    <g transform="translate(96.8 183.92385)scale(0.12 -0.12)">
     <use xlink:href="#DejaVuSans-Oblique-37"/>
     <use x="63.623046875" xlink:href="#DejaVuSans-Oblique-20"/>
     <use x="95.41015625" xlink:href="#DejaVuSans-Oblique-2d"/>
     <use x="131.494140625" xlink:href="#DejaVuSans-Oblique-20"/>
     <use x="163.28125" xlink:href="#DejaVuSans-Oblique-32"/>
     <use x="226.904296875" xlink:href="#DejaVuSans-Oblique-30"/>
     <use x="290.52734375" xlink:href="#DejaVuSans-Oblique-30"/>
     <use x="354.150390625" xlink:href="#DejaVuSans-Oblique-2e"/>
     <use x="385.9375" xlink:href="#DejaVuSans-Oblique-30"/>
     <use x="449.560546875" xlink:href="#DejaVuSans-Oblique-2e"/>
     <use x="481.34765625" xlink:href="#DejaVuSans-Oblique-32"/>
     <use x="544.970703125" xlink:href="#DejaVuSans-Oblique-30"/>
     <use x="608.59375" xlink:href="#DejaVuSans-Oblique-34"/>
     <use x="672.216796875" xlink:href="#DejaVuSans-Oblique-2e"/>
     <use x="704.00390625" xlink:href="#DejaVuSans-Oblique-36"/>
     <use x="767.626953125" xlink:href="#DejaVuSans-Oblique-33"/>
    </g>
    <!-- 8 - 62.40.124.36 -->
    <g transform="translate(96.8 197.361225)scale(0.12 -0.12)">
     <use xlink:href="#DejaVuSans-Oblique-38"/>
     <use x="63.623046875" xlink:href="#DejaVuSans-Oblique-20"/>
     <use x="95.41015625" xlink:href="#DejaVuSans-Oblique-2d"/>
     <use x="131.494140625" xlink:href="#DejaVuSans-Oblique-20"/>
     <use x="163.28125" xlink:href="#DejaVuSans-Oblique-36"/>
     <use x="226.904296875" xlink:href="#DejaVuSans-Oblique-32"/>
     <use x="290.52734375" xlink:href="#DejaVuSans-Oblique-2e"/>
     <use x="322.314453125" xlink:href="#DejaVuSans-Oblique-34"/>
     <use x="385.9375" xlink:href="#DejaVuSans-Oblique-30"/>
     <use x="449.560546875" xlink:href="#DejaVuSans-Oblique-2e"/>
     <use x="481.34765625" xlink:href="#DejaVuSans-Oblique-31"/>
     <use x="544.970703125" xlink:href="#DejaVuSans-Oblique-32"/>
     <use x="608.59375" xlink:href="#DejaVuSans-Oblique-34"/>
     <use x="672.216796875" xlink:href="#DejaVuSans-Oblique-2e"/>
     <use x="704.00390625" xlink:href="#DejaVuSans-Oblique-33"/>
     <use x="767.626953125" xlink:href="#DejaVuSans-Oblique-36"/>
    </g>
    <!-- 9 - 62.40.124.198 -->
    <g transform="translate(96.8 210.7986)scale(0.12 -0.12)">
     <use xlink:href="#DejaVuSans-Oblique-39"/>
     <use x="63.623046875" xlink:href="#DejaVuSans-Oblique-20"/>
     <use x="95.41015625" xlink:href="#DejaVuSans-Oblique-2d"/>
     <use x="131.494140625" xlink:href="#DejaVuSans-Oblique-20"/>
     <use x="163.28125" xlink:href="#DejaVuSans-Oblique-36"/>
     <use x="226.904296875" xlink:href="#DejaVuSans-Oblique-32"/>
     <use x="290.52734375" xlink:href="#DejaVuSans-Oblique-2e"/>
     <use x="322.314453125" xlink:href="#DejaVuSans-Oblique-34"/>
     <use x="385.9375" xlink:href="#DejaVuSans-Oblique-30"/>
     <use x="449.560546875" xlink:href="#DejaVuSans-Oblique-2e"/>
     <use x="481.34765625" xlink:href="#DejaVuSans-Oblique-31"/>
     <use x="544.970703125" xlink:href="#DejaVuSans-Oblique-32"/>
     <use x="608.59375" xlink:href="#DejaVuSans-Oblique-34"/>
     <use x="672.216796875" xlink:href="#DejaVuSans-Oblique-2e"/>
     <use x="704.00390625" xlink:href="#DejaVuSans-Oblique-31"/>
     <use x="767.626953125" xlink:href="#DejaVuSans-Oblique-39"/>
     <use x="831.25" xlink:href="#DejaVuSans-Oblique-38"/>
    </g>
    <!-- 10 - 146.97.33.18 -->
    <g transform="translate(96.8 224.235975)scale(0.12 -0.12)">
     <use xlink:href="#DejaVuSans-Oblique-31"/>
     <use x="63.623046875" xlink:href="#DejaVuSans-Oblique-30"/>
     <use x="127.24609375" xlink:href="#DejaVuSans-Oblique-20"/>
     <use x="159.033203125" xlink:href="#DejaVuSans-Oblique-2d"/>
     <use x="195.1171875" xlink:href="#DejaVuSans-Oblique-20"/>
     <use x="226.904296875" xlink:href="#DejaVuSans-Oblique-31"/>
     <use x="290.52734375" xlink:href="#DejaVuSans-Oblique-34"/>
     <use x="354.150390625" xlink:href="#DejaVuSans-Oblique-36"/>
     <use x="417.7734375" xlink:href="#DejaVuSans-Oblique-2e"/>
     <use x="449.560546875" xlink:href="#DejaVuSans-Oblique-39"/>
     <use x="513.18359375" xlink:href="#DejaVuSans-Oblique-37"/>
     <use x="576.806640625" xlink:href="#DejaVuSans-Oblique-2e"/>
     <use x="608.59375" xlink:href="#DejaVuSans-Oblique-33"/>
     <use x="672.216796875" xlink:href="#DejaVuSans-Oblique-33"/>
     <use x="735.83984375" xlink:href="#DejaVuSans-Oblique-2e"/>
     <use x="767.626953125" xlink:href="#DejaVuSans-Oblique-31"/>
     <use x="831.25" xlink:href="#DejaVuSans-Oblique-38"/>
    </g>
    <!-- 11 - 146.97.37.186 -->
    <g transform="translate(96.8 237.67335)scale(0.12 -0.12)">
     <use xlink:href="#DejaVuSans-Oblique-31"/>
     <use x="63.623046875" xlink:href="#DejaVuSans-Oblique-31"/>
     <use x="127.24609375" xlink:href="#DejaVuSans-Oblique-20"/>
     <use x="159.033203125" xlink:href="#DejaVuSans-Oblique-2d"/>
     <use x="195.1171875" xlink:href="#DejaVuSans-Oblique-20"/>
     <use x="226.904296875" xlink:href="#DejaVuSans-Oblique-31"/>
     <use x="290.52734375" xlink:href="#DejaVuSans-Oblique-34"/>
     <use x="354.150390625" xlink:href="#DejaVuSans-Oblique-36"/>
     <use x="417.7734375" xlink:href="#DejaVuSans-Oblique-2e"/>
     <use x="449.560546875" xlink:href="#DejaVuSans-Oblique-39"/>
     <use x="513.18359375" xlink:href="#DejaVuSans-Oblique-37"/>
     <use x="576.806640625" xlink:href="#DejaVuSans-Oblique-2e"/>
     <use x="608.59375" xlink:href="#DejaVuSans-Oblique-33"/>
     <use x="672.216796875" xlink:href="#DejaVuSans-Oblique-37"/>
     <use x="735.83984375" xlink:href="#DejaVuSans-Oblique-2e"/>
     <use x="767.626953125" xlink:href="#DejaVuSans-Oblique-31"/>
     <use x="831.25" xlink:href="#DejaVuSans-Oblique-38"/>
     <use x="894.873046875" xlink:href="#DejaVuSans-Oblique-36"/>
    </g>
    <!-- 12 - 146.97.130.2 -->
    <g transform="translate(96.8 251.110725)scale(0.12 -0.12)">
     <use xlink:href="#DejaVuSans-Oblique-31"/>
     <use x="63.623046875" xlink:href="#DejaVuSans-Oblique-32"/>
     <use x="127.24609375" xlink:href="#DejaVuSans-Oblique-20"/>
     <use x="159.033203125" xlink:href="#DejaVuSans-Oblique-2d"/>
     <use x="195.1171875" xlink:href="#DejaVuSans-Oblique-20"/>
     <use x="226.904296875" xlink:href="#DejaVuSans-Oblique-31"/>
     <use x="290.52734375" xlink:href="#DejaVuSans-Oblique-34"/>
     <use x="354.150390625" xlink:href="#DejaVuSans-Oblique-36"/>
     <use x="417.7734375" xlink:href="#DejaVuSans-Oblique-2e"/>
     <use x="449.560546875" xlink:href="#DejaVuSans-Oblique-39"/>
     <use x="513.18359375" xlink:href="#DejaVuSans-Oblique-37"/>
     <use x="576.806640625" xlink:href="#DejaVuSans-Oblique-2e"/>
     <use x="608.59375" xlink:href="#DejaVuSans-Oblique-31"/>
     <use x="672.216796875" xlink:href="#DejaVuSans-Oblique-33"/>
     <use x="735.83984375" xlink:href="#DejaVuSans-Oblique-30"/>
     <use x="799.462890625" xlink:href="#DejaVuSans-Oblique-2e"/>
     <use x="831.25" xlink:href="#DejaVuSans-Oblique-32"/>
    </g>
    <!-- 13 - 192.84.5.93 -->
    <g transform="translate(96.8 264.5481)scale(0.12 -0.12)">
     <use xlink:href="#DejaVuSans-Oblique-31"/>
     <use x="63.623046875" xlink:href="#DejaVuSans-Oblique-33"/>
     <use x="127.24609375" xlink:href="#DejaVuSans-Oblique-20"/>
     <use x="159.033203125" xlink:href="#DejaVuSans-Oblique-2d"/>
     <use x="195.1171875" xlink:href="#DejaVuSans-Oblique-20"/>
     <use x="226.904296875" xlink:href="#DejaVuSans-Oblique-31"/>
     <use x="290.52734375" xlink:href="#DejaVuSans-Oblique-39"/>
     <use x="354.150390625" xlink:href="#DejaVuSans-Oblique-32"/>
     <use x="417.7734375" xlink:href="#DejaVuSans-Oblique-2e"/>
     <use x="449.560546875" xlink:href="#DejaVuSans-Oblique-38"/>
     <use x="513.18359375" xlink:href="#DejaVuSans-Oblique-34"/>
     <use x="576.806640625" xlink:href="#DejaVuSans-Oblique-2e"/>
     <use x="608.59375" xlink:href="#DejaVuSans-Oblique-35"/>
     <use x="672.216796875" xlink:href="#DejaVuSans-Oblique-2e"/>
     <use x="704.00390625" xlink:href="#DejaVuSans-Oblique-39"/>
     <use x="767.626953125" xlink:href="#DejaVuSans-Oblique-33"/>
    </g>
    <!-- 14 - 192.84.5.138 -->
    <g transform="translate(96.8 277.985475)scale(0.12 -0.12)">
     <use xlink:href="#DejaVuSans-Oblique-31"/>
     <use x="63.623046875" xlink:href="#DejaVuSans-Oblique-34"/>
     <use x="127.24609375" xlink:href="#DejaVuSans-Oblique-20"/>
     <use x="159.033203125" xlink:href="#DejaVuSans-Oblique-2d"/>
     <use x="195.1171875" xlink:href="#DejaVuSans-Oblique-20"/>
     <use x="226.904296875" xlink:href="#DejaVuSans-Oblique-31"/>
     <use x="290.52734375" xlink:href="#DejaVuSans-Oblique-39"/>
     <use x="354.150390625" xlink:href="#DejaVuSans-Oblique-32"/>
     <use x="417.7734375" xlink:href="#DejaVuSans-Oblique-2e"/>
     <use x="449.560546875" xlink:href="#DejaVuSans-Oblique-38"/>
     <use x="513.18359375" xlink:href="#DejaVuSans-Oblique-34"/>
     <use x="576.806640625" xlink:href="#DejaVuSans-Oblique-2e"/>
     <use x="608.59375" xlink:href="#DejaVuSans-Oblique-35"/>
     <use x="672.216796875" xlink:href="#DejaVuSans-Oblique-2e"/>
     <use x="704.00390625" xlink:href="#DejaVuSans-Oblique-31"/>
     <use x="767.626953125" xlink:href="#DejaVuSans-Oblique-33"/>
     <use x="831.25" xlink:href="#DejaVuSans-Oblique-38"/>
    </g>
    <!-- 15 - 193.60.89.241 -->
    <g transform="translate(96.8 291.42285)scale(0.12 -0.12)">
     <use xlink:href="#DejaVuSans-Oblique-31"/>
     <use x="63.623046875" xlink:href="#DejaVuSans-Oblique-35"/>
     <use x="127.24609375" xlink:href="#DejaVuSans-Oblique-20"/>
     <use x="159.033203125" xlink:href="#DejaVuSans-Oblique-2d"/>
     <use x="195.1171875" xlink:href="#DejaVuSans-Oblique-20"/>
     <use x="226.904296875" xlink:href="#DejaVuSans-Oblique-31"/>
     <use x="290.52734375" xlink:href="#DejaVuSans-Oblique-39"/>
     <use x="354.150390625" xlink:href="#DejaVuSans-Oblique-33"/>
     <use x="417.7734375" xlink:href="#DejaVuSans-Oblique-2e"/>
     <use x="449.560546875" xlink:href="#DejaVuSans-Oblique-36"/>
     <use x="513.18359375" xlink:href="#DejaVuSans-Oblique-30"/>
     <use x="576.806640625" xlink:href="#DejaVuSans-Oblique-2e"/>
     <use x="608.59375" xlink:href="#DejaVuSans-Oblique-38"/>
     <use x="672.216796875" xlink:href="#DejaVuSans-Oblique-39"/>
     <use x="735.83984375" xlink:href="#DejaVuSans-Oblique-2e"/>
     <use x="767.626953125" xlink:href="#DejaVuSans-Oblique-32"/>
     <use x="831.25" xlink:href="#DejaVuSans-Oblique-34"/>
     <use x="894.873046875" xlink:href="#DejaVuSans-Oblique-31"/>
    </g>
    <!-- 16 - 131.111.150.25 -->
    <g transform="translate(96.8 304.860225)scale(0.12 -0.12)">
     <use xlink:href="#DejaVuSans-Oblique-31"/>
     <use x="63.623046875" xlink:href="#DejaVuSans-Oblique-36"/>
     <use x="127.24609375" xlink:href="#DejaVuSans-Oblique-20"/>
     <use x="159.033203125" xlink:href="#DejaVuSans-Oblique-2d"/>
     <use x="195.1171875" xlink:href="#DejaVuSans-Oblique-20"/>
     <use x="226.904296875" xlink:href="#DejaVuSans-Oblique-31"/>
     <use x="290.52734375" xlink:href="#DejaVuSans-Oblique-33"/>
     <use x="354.150390625" xlink:href="#DejaVuSans-Oblique-31"/>
     <use x="417.7734375" xlink:href="#DejaVuSans-Oblique-2e"/>
     <use x="449.560546875" xlink:href="#DejaVuSans-Oblique-31"/>
     <use x="513.18359375" xlink:href="#DejaVuSans-Oblique-31"/>
     <use x="576.806640625" xlink:href="#DejaVuSans-Oblique-31"/>
     <use x="640.4296875" xlink:href="#DejaVuSans-Oblique-2e"/>
     <use x="672.216796875" xlink:href="#DejaVuSans-Oblique-31"/>
     <use x="735.83984375" xlink:href="#DejaVuSans-Oblique-35"/>
     <use x="799.462890625" xlink:href="#DejaVuSans-Oblique-30"/>
     <use x="863.0859375" xlink:href="#DejaVuSans-Oblique-2e"/>
     <use x="894.873046875" xlink:href="#DejaVuSans-Oblique-32"/>
     <use x="958.49609375" xlink:href="#DejaVuSans-Oblique-35"/>
    </g>
    <!--  -->
    <g transform="translate(96.8 318.2976)scale(0.12 -0.12)"/>
   </g>
   <g id="text_26">
    <!-- Distribucion de RTT -->
    <defs>
     <path d="
M54.8906 33.0156
L54.8906 0
L45.9062 0
L45.9062 32.7188
Q45.9062 40.4844 42.875 44.3281
Q39.8438 48.1875 33.7969 48.1875
Q26.5156 48.1875 22.3125 43.5469
Q18.1094 38.9219 18.1094 30.9062
L18.1094 0
L9.07812 0
L9.07812 54.6875
L18.1094 54.6875
L18.1094 46.1875
Q21.3438 51.125 25.7031 53.5625
Q30.0781 56 35.7969 56
Q45.2188 56 50.0469 50.1719
Q54.8906 44.3438 54.8906 33.0156" id="DejaVuSans-6e"/>
     <path d="
M19.6719 64.7969
L19.6719 8.10938
L31.5938 8.10938
Q46.6875 8.10938 53.6875 14.9375
Q60.6875 21.7812 60.6875 36.5312
Q60.6875 51.1719 53.6875 57.9844
Q46.6875 64.7969 31.5938 64.7969
z

M9.8125 72.9062
L30.0781 72.9062
Q51.2656 72.9062 61.1719 64.0938
Q71.0938 55.2812 71.0938 36.5312
Q71.0938 17.6719 61.125 8.82812
Q51.1719 0 30.0781 0
L9.8125 0
z
" id="DejaVuSans-44"/>
     <path id="DejaVuSans-20"/>
     <path d="
M9.42188 54.6875
L18.4062 54.6875
L18.4062 0
L9.42188 0
z

M9.42188 75.9844
L18.4062 75.9844
L18.4062 64.5938
L9.42188 64.5938
z
" id="DejaVuSans-69"/>
     <path d="
M8.5 21.5781
L8.5 54.6875
L17.4844 54.6875
L17.4844 21.9219
Q17.4844 14.1562 20.5 10.2656
Q23.5312 6.39062 29.5938 6.39062
Q36.8594 6.39062 41.0781 11.0312
Q45.3125 15.6719 45.3125 23.6875
L45.3125 54.6875
L54.2969 54.6875
L54.2969 0
L45.3125 0
L45.3125 8.40625
Q42.0469 3.42188 37.7188 1
Q33.4062 -1.42188 27.6875 -1.42188
Q18.2656 -1.42188 13.375 4.4375
Q8.5 10.2969 8.5 21.5781
M31.1094 56
z
" id="DejaVuSans-75"/>
     <path d="
M18.3125 70.2188
L18.3125 54.6875
L36.8125 54.6875
L36.8125 47.7031
L18.3125 47.7031
L18.3125 18.0156
Q18.3125 11.3281 20.1406 9.42188
Q21.9688 7.51562 27.5938 7.51562
L36.8125 7.51562
L36.8125 0
L27.5938 0
Q17.1875 0 13.2344 3.875
Q9.28125 7.76562 9.28125 18.0156
L9.28125 47.7031
L2.6875 47.7031
L2.6875 54.6875
L9.28125 54.6875
L9.28125 70.2188
z
" id="DejaVuSans-74"/>
     <path d="
M45.4062 46.3906
L45.4062 75.9844
L54.3906 75.9844
L54.3906 0
L45.4062 0
L45.4062 8.20312
Q42.5781 3.32812 38.25 0.953125
Q33.9375 -1.42188 27.875 -1.42188
Q17.9688 -1.42188 11.7344 6.48438
Q5.51562 14.4062 5.51562 27.2969
Q5.51562 40.1875 11.7344 48.0938
Q17.9688 56 27.875 56
Q33.9375 56 38.25 53.625
Q42.5781 51.2656 45.4062 46.3906
M14.7969 27.2969
Q14.7969 17.3906 18.875 11.75
Q22.9531 6.10938 30.0781 6.10938
Q37.2031 6.10938 41.2969 11.75
Q45.4062 17.3906 45.4062 27.2969
Q45.4062 37.2031 41.2969 42.8438
Q37.2031 48.4844 30.0781 48.4844
Q22.9531 48.4844 18.875 42.8438
Q14.7969 37.2031 14.7969 27.2969" id="DejaVuSans-64"/>
     <path d="
M56.2031 29.5938
L56.2031 25.2031
L14.8906 25.2031
Q15.4844 15.9219 20.4844 11.0625
Q25.4844 6.20312 34.4219 6.20312
Q39.5938 6.20312 44.4531 7.46875
Q49.3125 8.73438 54.1094 11.2812
L54.1094 2.78125
Q49.2656 0.734375 44.1875 -0.34375
Q39.1094 -1.42188 33.8906 -1.42188
Q20.7969 -1.42188 13.1562 6.1875
Q5.51562 13.8125 5.51562 26.8125
Q5.51562 40.2344 12.7656 48.1094
Q20.0156 56 32.3281 56
Q43.3594 56 49.7812 48.8906
Q56.2031 41.7969 56.2031 29.5938
M47.2188 32.2344
Q47.125 39.5938 43.0938 43.9844
Q39.0625 48.3906 32.4219 48.3906
Q24.9062 48.3906 20.3906 44.1406
Q15.875 39.8906 15.1875 32.1719
z
" id="DejaVuSans-65"/>
     <path d="
M48.6875 27.2969
Q48.6875 37.2031 44.6094 42.8438
Q40.5312 48.4844 33.4062 48.4844
Q26.2656 48.4844 22.1875 42.8438
Q18.1094 37.2031 18.1094 27.2969
Q18.1094 17.3906 22.1875 11.75
Q26.2656 6.10938 33.4062 6.10938
Q40.5312 6.10938 44.6094 11.75
Q48.6875 17.3906 48.6875 27.2969
M18.1094 46.3906
Q20.9531 51.2656 25.2656 53.625
Q29.5938 56 35.5938 56
Q45.5625 56 51.7812 48.0938
Q58.0156 40.1875 58.0156 27.2969
Q58.0156 14.4062 51.7812 6.48438
Q45.5625 -1.42188 35.5938 -1.42188
Q29.5938 -1.42188 25.2656 0.953125
Q20.9531 3.32812 18.1094 8.20312
L18.1094 0
L9.07812 0
L9.07812 75.9844
L18.1094 75.9844
z
" id="DejaVuSans-62"/>
     <path d="
M48.7812 52.5938
L48.7812 44.1875
Q44.9688 46.2969 41.1406 47.3438
Q37.3125 48.3906 33.4062 48.3906
Q24.6562 48.3906 19.8125 42.8438
Q14.9844 37.3125 14.9844 27.2969
Q14.9844 17.2812 19.8125 11.7344
Q24.6562 6.20312 33.4062 6.20312
Q37.3125 6.20312 41.1406 7.25
Q44.9688 8.29688 48.7812 10.4062
L48.7812 2.09375
Q45.0156 0.34375 40.9844 -0.53125
Q36.9688 -1.42188 32.4219 -1.42188
Q20.0625 -1.42188 12.7812 6.34375
Q5.51562 14.1094 5.51562 27.2969
Q5.51562 40.6719 12.8594 48.3281
Q20.2188 56 33.0156 56
Q37.1562 56 41.1094 55.1406
Q45.0625 54.2969 48.7812 52.5938" id="DejaVuSans-63"/>
     <path d="
M41.1094 46.2969
Q39.5938 47.1719 37.8125 47.5781
Q36.0312 48 33.8906 48
Q26.2656 48 22.1875 43.0469
Q18.1094 38.0938 18.1094 28.8125
L18.1094 0
L9.07812 0
L9.07812 54.6875
L18.1094 54.6875
L18.1094 46.1875
Q20.9531 51.1719 25.4844 53.5781
Q30.0312 56 36.5312 56
Q37.4531 56 38.5781 55.875
Q39.7031 55.7656 41.0625 55.5156
z
" id="DejaVuSans-72"/>
    </defs>
    <g transform="translate(225.311625 38.2)scale(0.144 -0.144)">
     <use xlink:href="#DejaVuSans-44"/>
     <use x="77.001953125" xlink:href="#DejaVuSans-69"/>
     <use x="104.78515625" xlink:href="#DejaVuSans-73"/>
     <use x="156.884765625" xlink:href="#DejaVuSans-74"/>
     <use x="196.09375" xlink:href="#DejaVuSans-72"/>
     <use x="237.20703125" xlink:href="#DejaVuSans-69"/>
     <use x="264.990234375" xlink:href="#DejaVuSans-62"/>
     <use x="328.466796875" xlink:href="#DejaVuSans-75"/>
     <use x="391.845703125" xlink:href="#DejaVuSans-63"/>
     <use x="446.826171875" xlink:href="#DejaVuSans-69"/>
     <use x="474.609375" xlink:href="#DejaVuSans-6f"/>
     <use x="535.791015625" xlink:href="#DejaVuSans-6e"/>
     <use x="599.169921875" xlink:href="#DejaVuSans-20"/>
     <use x="630.95703125" xlink:href="#DejaVuSans-64"/>
     <use x="694.43359375" xlink:href="#DejaVuSans-65"/>
     <use x="755.95703125" xlink:href="#DejaVuSans-20"/>
     <use x="787.744140625" xlink:href="#DejaVuSans-52"/>
     <use x="849.9765625" xlink:href="#DejaVuSans-54"/>
     <use x="909.310546875" xlink:href="#DejaVuSans-54"/>
    </g>
   </g>
  </g>
 </g>
 <defs>
  <clipPath id="p7ff5b81e1d">
   <rect height="345.6" width="446.4" x="72.0" y="43.2"/>
  </clipPath>
 </defs>
</svg>
